<svg width="32" height="32" viewBox="0 0 32 32" fill="none" xmlns="http://www.w3.org/2000/svg">
<path d="M15.1779 24.1881C14.8302 24.1881 14.548 23.9053 14.548 23.5582C14.548 23.2111 14.8302 22.9283 15.1779 22.9283C15.525 22.9283 15.8078 23.2111 15.8078 23.5582C15.8078 23.9053 15.525 24.1881 15.1779 24.1881ZM31.3701 20.4087H18.4779C18.548 20.2096 18.5846 19.9982 18.5845 19.781L18.5834 17.2738C19.5752 17.1679 20.5233 16.8852 21.4092 16.4292C22.6484 15.7916 23.5972 14.6464 24.0123 13.2873C24.4252 11.9357 24.5903 10.5452 24.5066 9.14139C25.1658 9.40463 26.1844 9.6906 27.4118 9.63813C27.3133 9.94464 27.3752 10.2816 27.5875 10.5357C27.7701 10.7541 28.1291 10.9825 28.6035 10.8254C30.6073 10.1618 31.9382 8.22552 31.8387 6.1131C31.7978 5.24478 31.5226 4.42333 31.0389 3.70928C31.1006 3.57171 31.1381 3.42242 31.1472 3.26678C31.1699 2.87769 31.0155 2.50586 30.7233 2.24672C29.0667 0.776728 26.9287 -0.0215412 24.7065 0.000442238C22.4685 0.0219847 20.3339 0.875055 18.6959 2.40249C18.6959 2.40249 8.04135 12.3777 7.56912 12.8844C4.91574 15.7318 2.84091 18.9992 1.40204 22.5959C1.25275 22.971 1.49054 23.4739 2.03956 23.4576C2.22847 23.452 2.41586 23.4242 2.60357 23.405L0.494672 25.9805C-0.175225 26.7986 -0.164201 27.9769 0.524529 28.7793C1.27486 29.6534 2.42651 29.7054 3.21331 29.2873L2.44313 31.1256C2.21184 31.753 2.84784 32.1594 3.29967 31.9354C5.7814 30.7281 7.77327 28.7994 9.06002 26.3579L10.2035 24.1881H12.3433C12.6904 24.1881 12.9726 23.9053 12.9726 23.5582C12.9726 23.2112 12.6904 22.9283 12.3433 22.9283H10.8674L11.5314 21.6685H30.7401V22.9283H18.0124C17.6502 22.9283 17.359 23.2352 17.384 23.602C17.4067 23.9362 17.6997 24.1881 18.0346 24.1881H20.5073C20.2935 25.4372 20.3342 26.733 20.6297 27.9649C21.0433 29.6897 22.3625 31.0681 24.0722 31.5624C25.0729 31.8516 26.8673 32.2061 28.9954 31.8464C29.2697 31.8001 29.4816 31.5802 29.5165 31.3042C29.7243 29.6612 29.5585 27.9641 29.037 26.3962C28.7468 25.5238 28.2245 24.7654 27.548 24.1881H31.37C31.7179 24.1881 31.9999 23.9061 31.9999 23.5582V21.0386C32 20.6907 31.7179 20.4087 31.3701 20.4087ZM27.8076 8.33997C26.9043 8.44926 25.9927 8.34432 25.1446 8.03643L27.2816 6.54653C27.6656 7.06909 27.8473 7.70623 27.8076 8.33997ZM30.5803 6.17243C30.6409 7.46064 29.9773 8.66021 28.9076 9.30731C29.2608 8.12152 29.042 6.83118 28.3152 5.82586L30.1014 4.58049C30.3896 5.06299 30.5535 5.60433 30.5803 6.17243ZM17.6341 6.34924C17.4819 6.0365 17.1051 5.9063 16.7921 6.05855C16.6692 6.11839 16.5477 6.18075 16.4257 6.2421L19.5552 3.32385C22.4695 0.606278 26.9113 0.548327 29.8902 3.19188L23.4198 7.70315C23.2244 7.83939 23.1226 8.07416 23.1566 8.30986C23.3821 9.87151 23.2647 11.4224 22.8075 12.9193C22.4911 13.955 21.7714 14.826 20.8328 15.309C20.5095 15.4754 20.1761 15.614 19.834 15.7256C20.924 14.3783 21.6054 12.7231 21.7613 10.9702C21.8089 10.4358 21.843 9.89173 21.8627 9.35297C21.8754 9.00533 21.6039 8.71319 21.2563 8.70046C20.9095 8.6873 20.6165 8.95922 20.6038 9.30687C20.588 9.73702 20.5621 10.1704 20.5278 10.5993C18.9526 11.8696 16.9172 12.4583 14.9028 12.2174C13.5447 12.055 12.1912 11.7976 10.8653 11.4509C12.8147 9.77349 14.9871 8.33821 17.3434 7.19135C17.6562 7.03905 17.7864 6.66205 17.6341 6.34924ZM9.75637 12.4523C11.3881 12.9251 13.0674 13.2666 14.7532 13.4682C15.6831 13.5795 16.6168 13.5393 17.5197 13.3584C16.9065 13.6591 16.2502 13.8777 15.5675 14.0029C13.0238 14.4694 10.4425 14.6052 7.87764 14.4097C8.47409 13.7296 9.10052 13.0761 9.75637 12.4523ZM2.76841 28.0718C2.38355 28.39 1.80643 28.34 1.48191 27.9605C1.19172 27.6211 1.18643 27.1242 1.46931 26.7787L4.43002 23.163C4.92027 23.0835 5.40813 22.9935 5.89283 22.891L4.2277 26.8658L2.76841 28.0718ZM7.94554 25.7706C7.07339 27.4254 5.84213 28.8191 4.33421 29.8719L7.41 22.5297C8.31876 22.2894 9.21542 22.0087 10.0973 21.6878L7.94554 25.7706ZM16.6932 20.4087H13.1077C14.5696 19.6948 15.9786 18.8644 17.3225 17.9232L17.3231 19.7786C17.3232 20.1266 17.0411 20.4087 16.6932 20.4087ZM17.5661 16.1865C13.3019 19.4327 8.27794 21.4646 2.97842 22.0962C4.01208 19.7516 5.33247 17.569 6.89758 15.5884C10.6923 16.008 13.9798 15.575 15.7948 15.2421C17.2983 14.9664 18.6918 14.3021 19.8455 13.3389C19.3343 14.4497 18.556 15.4329 17.5661 16.1865ZM27.8416 26.7938C28.2539 28.0333 28.4155 29.3641 28.315 30.671C27.0131 30.8233 25.677 30.7149 24.4222 30.3521C23.1467 29.9834 22.163 28.9561 21.8548 27.671C21.6572 26.8476 21.5914 25.9912 21.6566 25.1459L25.7208 29.0524C25.9716 29.2935 26.3702 29.2856 26.6114 29.0348C26.8525 28.784 26.8446 28.3852 26.5938 28.1441L22.5387 24.2464C23.4041 24.1451 24.2486 24.1742 25.0606 24.335C26.357 24.592 27.4226 25.5341 27.8416 26.7938ZM25.512 3.46444C25.512 3.81233 25.794 4.09434 26.1419 4.09434C26.4898 4.09434 26.7718 3.81233 26.7718 3.46444C26.7718 3.11655 26.4898 2.83454 26.1419 2.83454C25.794 2.83454 25.512 3.11655 25.512 3.46444Z" fill="#282828"/>
</svg>
