<svg width="30" height="30" viewBox="0 0 30 30" fill="none" xmlns="http://www.w3.org/2000/svg">
<path d="M29.5 1.5H0.5C0.223877 1.5 0 1.72388 0 2V6C0 6.27612 0.223877 6.5 0.5 6.5H1V24C1.00171 25.3801 2.11987 26.4983 3.5 26.5H4V28C4 28.2761 4.22388 28.5 4.5 28.5H10.5C10.7761 28.5 11 28.2761 11 28V26.5H19V28C19 28.2761 19.2239 28.5 19.5 28.5H25.5C25.7761 28.5 26 28.2761 26 28V26.5H26.5C27.8801 26.4983 28.9983 25.3801 29 24V6.5H29.5C29.7761 6.5 30 6.27612 30 6V2C30 1.72388 29.7761 1.5 29.5 1.5ZM10 27.5H5V26.5H10V27.5ZM25 27.5H20V26.5H25V27.5ZM28 24C28 24.8284 27.3284 25.5 26.5 25.5H3.5C2.67163 25.5 2 24.8284 2 24V20.2859C2.4231 20.1106 3.73511 19.7859 6.8916 20.4861C11.4121 21.4924 17.77 21.0195 18 21C19.8777 20.9888 21.7512 20.8181 23.6001 20.49C24.7129 20.2539 25.8022 19.918 26.855 19.4866C27.2981 19.3159 27.6819 19.1675 28.002 19.0815L28 24ZM28 18.0576C27.4854 18.1821 26.9817 18.3477 26.4934 18.553C25.4929 18.9636 24.4575 19.2837 23.3999 19.51C22.7815 19.6335 22.1289 19.7256 21.5 19.7949V18.5H23.5C25.4321 18.4978 26.9978 16.9321 27 15C27 14.7239 26.7761 14.5 26.5 14.5H24.5C23.2695 14.502 22.1306 15.1499 21.5 16.2065V14H23.5C25.4321 13.9978 26.9978 12.4321 27 10.5C27 10.2239 26.7761 10 26.5 10H24.5C23.2695 10.002 22.1306 10.6499 21.5 11.7065V11C21.5 10.7239 21.2761 10.5 21 10.5C20.7239 10.5 20.5 10.7239 20.5 11V11.7065C19.8694 10.6499 18.7305 10.002 17.5 10H15.5C15.2239 10 15 10.2239 15 10.5C15.0022 12.4321 16.5679 13.9978 18.5 14H20.5V16.2065C19.8694 15.1499 18.7305 14.502 17.5 14.5H15.5C15.2239 14.5 15 14.7239 15 15C15.0022 16.9321 16.5679 18.4978 18.5 18.5H20.5V19.8879C19.103 20 18.0024 20 17.9614 20C17.9016 20.0044 12.3206 20.4194 8.01855 19.687L8.85352 18.8521C9.04297 18.6558 9.04028 18.344 8.84741 18.1511C8.65454 17.9583 8.34277 17.9556 8.14648 18.145L7.5 18.793V17C7.5 16.7239 7.27612 16.5 7 16.5C6.72388 16.5 6.5 16.7239 6.5 17V18.5L5.8999 17.7C5.73438 17.479 5.4209 17.4343 5.19995 17.6001C4.979 17.7656 4.93433 18.0791 5.1001 18.3001L5.82397 19.2649C3.86499 18.9441 2.68555 19.0454 2 19.231V6.5H28V18.0576ZM22.05 17.5C22.2891 16.3367 23.3125 15.5012 24.5 15.5H25.95C25.7109 16.6633 24.6875 17.4988 23.5 17.5H22.05ZM22.05 13C22.2891 11.8367 23.3125 11.0012 24.5 11H25.95C25.7109 12.1633 24.6875 12.9988 23.5 13H22.05ZM19.95 13H18.5C17.3125 12.9988 16.2891 12.1633 16.05 11H17.5C18.6875 11.0012 19.7109 11.8367 19.95 13ZM19.95 17.5H18.5C17.3125 17.4988 16.2891 16.6633 16.05 15.5H17.5C18.6875 15.5012 19.7109 16.3367 19.95 17.5ZM29 3.5H23.5C23.2239 3.5 23 3.72388 23 4C23 4.27612 23.2239 4.5 23.5 4.5H29V5.5H1V4.5H18.5C18.7761 4.5 19 4.27612 19 4C19 3.72388 18.7761 3.5 18.5 3.5H1V2.5H29V3.5Z" fill="#282828"/>
<path d="M20.5 4.5H21.5C21.7761 4.5 22 4.27612 22 4C22 3.72388 21.7761 3.5 21.5 3.5H20.5C20.2239 3.5 20 3.72388 20 4C20 4.27612 20.2239 4.5 20.5 4.5Z" fill="#282828"/>
<path d="M5.5 21.5H5C4.72388 21.5 4.5 21.7239 4.5 22C4.5 22.2761 4.72388 22.5 5 22.5H5.5C5.77612 22.5 6 22.2761 6 22C6 21.7239 5.77612 21.5 5.5 21.5Z" fill="#282828"/>
<path d="M8.5 23H8C7.72388 23 7.5 23.2239 7.5 23.5C7.5 23.7761 7.72388 24 8 24H8.5C8.77612 24 9 23.7761 9 23.5C9 23.2239 8.77612 23 8.5 23Z" fill="#282828"/>
<path d="M13 22H12.5C12.2239 22 12 22.2239 12 22.5C12 22.7761 12.2239 23 12.5 23H13C13.2761 23 13.5 22.7761 13.5 22.5C13.5 22.2239 13.2761 22 13 22Z" fill="#282828"/>
<path d="M17 23.5H16.5C16.2239 23.5 16 23.7239 16 24C16 24.2761 16.2239 24.5 16.5 24.5H17C17.2761 24.5 17.5 24.2761 17.5 24C17.5 23.7239 17.2761 23.5 17 23.5Z" fill="#282828"/>
<path d="M20.5 22H20C19.7239 22 19.5 22.2239 19.5 22.5C19.5 22.7761 19.7239 23 20 23H20.5C20.7761 23 21 22.7761 21 22.5C21 22.2239 20.7761 22 20.5 22Z" fill="#282828"/>
<path d="M24.5 23H24C23.7239 23 23.5 23.2239 23.5 23.5C23.5 23.7761 23.7239 24 24 24H24.5C24.7761 24 25 23.7761 25 23.5C25 23.2239 24.7761 23 24.5 23Z" fill="#282828"/>
<path d="M26 21H25.5C25.2239 21 25 21.2239 25 21.5C25 21.7761 25.2239 22 25.5 22H26C26.2761 22 26.5 21.7761 26.5 21.5C26.5 21.2239 26.2761 21 26 21Z" fill="#282828"/>
<path d="M3.99981 12.9999C4.11333 12.9999 4.22319 12.9614 4.31182 12.8903L9.31182 8.89033C9.52739 8.71797 9.56231 8.40303 9.3897 8.18745C9.21733 7.97187 8.90239 7.93696 8.68682 8.10957L3.68682 12.1096C3.5208 12.2421 3.45684 12.4653 3.52739 12.6657C3.59771 12.8662 3.7874 13.0002 3.99981 12.9999Z" fill="#282828"/>
<path d="M8.13011 13.8364C8.31615 14.041 8.63231 14.0559 8.83666 13.8701L14.3367 8.87014C14.541 8.6841 14.5561 8.36794 14.3704 8.1636C14.1843 7.95925 13.8682 7.94412 13.6638 8.12991L8.16381 13.1299C7.95922 13.3159 7.94432 13.6321 8.13011 13.8364Z" fill="#282828"/>
<path d="M13.1752 13.1206L9.67517 16.1206C9.53162 16.2344 9.4618 16.4175 9.49329 16.5979C9.52454 16.7783 9.65198 16.927 9.82556 16.9859C9.9989 17.0447 10.1906 17.0037 10.3251 16.8794L13.8251 13.8794C13.9686 13.7656 14.0385 13.5825 14.007 13.4021C13.9757 13.2217 13.8483 13.073 13.6747 13.0142C13.5013 12.9553 13.3097 12.9964 13.1752 13.1206Z" fill="#282828"/>
</svg>
