<svg width="30" height="26" viewBox="0 0 30 26" fill="none" xmlns="http://www.w3.org/2000/svg">
<path d="M23.2016 4.36618C22.8757 4.36618 22.6114 4.10185 22.6114 3.77589C22.6114 3.44994 22.8757 3.18561 23.2016 3.18561H23.4968C23.8227 3.18561 24.0871 3.44994 24.0871 3.77589C24.0871 4.10185 23.8227 4.36618 23.4968 4.36618H23.2016ZM29.1588 6.90677L26.1289 10.0099C25.7045 10.4449 24.645 11.4134 23.0995 11.979C22.6853 12.1307 22.3434 12.4362 22.1476 12.8193L21.9019 15.7448C21.8739 16.0786 21.9358 16.4054 22.0811 16.6901C22.9582 18.4087 23.3661 20.3119 23.273 22.2302C24.4522 22.3659 25.5591 22.8703 26.4392 23.6859C27.2423 24.4302 26.7091 25.7346 25.6384 25.7346H20.958C19.8464 25.7346 18.8998 24.9803 18.6559 23.9001C18.2037 21.8972 18.0261 19.8493 18.1255 17.7999C17.4544 18.283 16.7364 18.6947 15.9778 19.0314C16.2515 20.0659 16.0611 21.4978 14.8076 22.3888C15.6728 22.6236 16.4718 23.0677 17.1461 23.6857C17.9253 24.3998 17.4397 25.7346 16.3456 25.7346H9.92019C6.99361 25.7346 4.11343 24.9864 1.59101 23.5707C0.608834 23.0195 0.01412 22.0189 0.000248219 20.894C-0.0114985 19.9415 0.394206 19.0673 1.10556 18.4704C0.881192 17.8191 0.843119 16.9813 1.17976 16.1673C1.33807 15.7845 1.51032 15.3986 1.69036 15.0197C2.0267 14.3117 3.09276 14.8176 2.75642 15.5256C2.58488 15.8867 2.42231 16.2549 2.27061 16.6194C2.08839 17.0574 2.08839 17.5106 2.15143 17.8221C3.8586 16.9192 6.44889 16.0291 9.25577 16.1164L14.3769 13.1276C16.0208 12.1681 17.5339 10.9964 18.8743 9.645L20.9259 7.57657C21.7842 6.71121 22.7933 6.04295 23.925 5.59044L28.5004 3.76096L28.3371 3.31323C28.1087 2.6887 27.5397 2.23713 26.8868 2.16217C26.1821 2.08065 25.4642 2.03053 24.7541 2.01283C24.5634 2.0081 24.384 1.91183 24.2795 1.75251C23.7919 1.00928 22.5809 0.933132 22.0695 1.84164C21.976 2.00775 21.8069 2.11908 21.6174 2.13915C15.2919 2.81089 9.40647 6.08533 5.4748 11.1263C4.99089 11.7467 4.06 11.0207 4.54392 10.4002C9.16032 4.48135 15.7489 1.59579 21.2124 0.996351C22.1696 -0.293189 24.0433 -0.316033 25.0652 0.841047C25.7182 0.865249 26.3779 0.906628 27.0226 0.989268C28.6057 1.19209 29.2586 2.39527 29.4458 2.90829L29.8059 3.89407C30.1975 5.00788 29.9005 6.12748 29.1588 6.90677ZM13.6682 18.1086C12.1575 17.5708 10.5852 17.2854 9.02296 17.2854C6.6274 17.2854 4.24653 17.9173 2.13372 19.184C0.827889 19.9669 0.873577 21.8177 2.16884 22.5411C4.51789 23.8531 7.19555 24.554 9.92019 24.554H16.3456C16.3456 24.5542 16.3455 24.5538 16.3456 24.554C16.3453 24.5536 16.3449 24.5527 16.3445 24.5523C15.5225 23.792 14.4534 23.3734 13.3338 23.3734H10.0609C6.97449 23.3734 4.67798 22.5386 3.02364 21.6592C2.73581 21.5062 2.62643 21.1488 2.7795 20.861C2.9325 20.573 3.28992 20.4637 3.5778 20.6168C5.53094 21.655 7.67716 22.1881 9.84635 22.1973C11.2474 22.1973 12.4497 22.0306 13.5165 21.7076C15.3603 21.1493 15.3261 18.6987 13.6682 18.1086ZM15.4424 17.9772C16.4389 17.5417 17.3586 16.9632 18.1842 16.252V11.8835C17.1807 12.7274 16.106 13.4852 14.972 14.1471L11.3007 16.2898C13.4029 16.6765 14.6901 17.0345 15.4424 17.9772ZM21.0295 17.2268C20.7841 16.746 20.679 16.1994 20.7255 15.646L21.1355 10.7642C21.1642 10.4995 20.9757 10.1225 20.5454 10.1225C19.9054 10.1225 19.3648 10.6631 19.3648 11.3031C19.3648 11.3031 19.364 16.9913 19.3625 17.0085C19.1668 19.2339 19.3165 21.4651 19.8075 23.6401C19.927 24.1697 20.4108 24.554 20.9578 24.554H25.6383C25.6383 24.5542 25.6383 24.5538 25.6383 24.554C25.6381 24.5537 25.6378 24.5528 25.6374 24.5525C24.8187 23.7951 23.7532 23.3737 22.6374 23.3737C22.3029 23.3737 22.0135 23.082 22.0518 22.7222C22.2538 20.8258 21.8963 18.9251 21.0295 17.2268ZM28.3135 6.08149C28.6213 5.76687 28.7931 5.35231 28.7999 4.91255L24.3634 6.68648C23.3826 7.07872 22.508 7.6578 21.7641 8.40781L21.1338 9.04338C21.8649 9.31125 22.4381 10.0272 22.2961 11.0513C22.4217 10.9826 22.5526 10.9227 22.6887 10.8723C23.6621 10.5111 24.5593 9.92786 25.2842 9.18528L28.3135 6.08149ZM3.49303 13.532C3.81905 13.532 4.08332 13.2678 4.08332 12.9417C4.08332 12.6157 3.81905 12.3515 3.49303 12.3515C3.16702 12.3515 2.90275 12.6157 2.90275 12.9417C2.90281 13.2678 3.16708 13.532 3.49303 13.532Z" fill="#282828"/>
</svg>
