<svg width="32" height="31" viewBox="0 0 32 31" fill="none" xmlns="http://www.w3.org/2000/svg">
<path d="M15.9999 0C7.17757 0 0 6.84037 0 15.2483C0 23.6562 7.17757 30.4965 15.9999 30.4965C20.1553 30.4965 24.0929 28.9855 27.0875 26.2417C27.3468 26.0042 27.3549 25.6113 27.1056 25.3643C26.8565 25.1173 26.4443 25.1094 26.1849 25.347C23.4342 27.8674 19.8171 29.2553 16.0001 29.2553C7.89573 29.2554 1.30239 22.9719 1.30239 15.2483C1.30239 7.52469 7.89573 1.2412 15.9999 1.2412C24.1042 1.2412 30.6975 7.52479 30.6975 15.2483C30.6975 16.9903 30.3663 18.6898 29.713 20.2994C29.5833 20.6192 29.75 20.9785 30.0855 21.1022C30.4211 21.2256 30.798 21.0669 30.9278 20.7472C31.6392 18.9941 32 17.144 32 15.2482C32 6.84037 24.8224 0 15.9999 0Z" fill="#78D411"/>
<path d="M18.1921 16.5632C17.9349 16.3234 17.5227 16.3277 17.2712 16.5725C17.0196 16.8175 17.0241 17.2104 17.281 17.4502L22.4076 22.2325C22.5344 22.3508 22.6988 22.4096 22.8631 22.4096C23.0321 22.4096 23.201 22.3472 23.3285 22.2231C23.5801 21.9782 23.5756 21.5852 23.3187 21.3455L18.1921 16.5632Z" fill="#78D411"/>
<path d="M13.5859 13.8252C13.713 13.9464 13.8797 14.007 14.0464 14.007C14.2131 14.007 14.3797 13.9464 14.5069 13.8252C14.7612 13.5829 14.7612 13.1899 14.5069 12.9476L9.59733 8.26868C9.34303 8.02634 8.93061 8.02634 8.67643 8.26868C8.42214 8.51103 8.42214 8.90397 8.67643 9.14632L13.5859 13.8252Z" fill="#78D411"/>
<path d="M23.3236 8.26868C23.0693 8.02634 22.6569 8.02634 22.4027 8.26868L8.67629 21.3502C8.422 21.5926 8.422 21.9855 8.67629 22.2279C8.80338 22.349 8.97009 22.4096 9.1368 22.4096C9.3035 22.4096 9.4701 22.349 9.5973 22.2279L23.3236 9.14642C23.5779 8.90397 23.5779 8.51113 23.3236 8.26868Z" fill="#78D411"/>
</svg>
