<svg width="36" height="22" viewBox="0 0 36 22" fill="none" xmlns="http://www.w3.org/2000/svg">
<path d="M0.0213089 17.9497C0.121574 17.1906 0.522633 16.9113 0.910542 16.6411C1.40012 16.3001 2.14016 15.7847 3.08192 13.6159C4.52352 10.2961 6.32372 9.78243 7.6382 9.40753C7.93063 9.32407 8.18403 9.25171 8.39286 9.15778C8.55008 9.01701 8.77775 8.28528 8.94445 7.74915C9.30551 6.58865 9.80008 4.99918 10.866 3.62753C12.1387 1.9899 13.9617 1.02711 16.2847 0.765906C19.2434 0.43326 21.9508 0.995755 24.3314 2.43806C24.608 2.60562 24.7215 2.964 24.5605 3.24454C24.3959 3.53134 24.0287 3.6243 23.7481 3.45344C21.588 2.13783 19.1209 1.62477 16.4155 1.92922C11.8204 2.44594 10.7624 5.84658 10.0623 8.09691C9.84923 8.78196 9.67345 9.3446 9.41998 9.73321L10.7461 11.5014C11.0206 11.3388 11.3379 11.2735 11.6652 11.47C12.0937 11.727 12.351 12.1875 12.3898 12.7664C12.4606 13.8218 11.8162 15.2081 10.9228 15.9223C10.351 16.3793 9.96461 17.3087 11.975 20.4445H13.8888C13.7887 20.2264 13.6041 19.9955 13.2648 19.8538C12.5513 19.5556 12.1534 18.7881 12.2261 17.8509C12.2971 16.9368 12.8595 15.8335 13.9265 15.5714C13.9306 15.5705 13.935 15.5695 13.9389 15.5686C13.9405 15.5682 13.9423 15.5678 13.944 15.5674C14.1797 15.5103 14.4566 15.4586 14.75 15.4042C16.1132 15.1508 17.9788 14.8039 18.2688 13.4912C18.7126 10.9444 17.6685 9.73532 17.616 9.67661C17.3987 9.4405 17.4118 9.07284 17.6466 8.85297C17.8824 8.63184 18.2528 8.64415 18.474 8.87997C18.5314 8.94129 19.7846 10.3183 19.5074 13.0701L22.0675 13.2657C22.296 13.283 22.4997 13.4334 22.5783 13.6632C22.6108 13.7581 22.6141 13.86 22.5981 13.9591C22.2847 15.8887 22.1246 19.2196 22.9374 20.4447H24.2173C24.0923 20.3197 23.9313 20.1844 23.7238 20.0457C23.4994 19.8955 23.4067 19.6115 23.4995 19.3579L24.0907 17.7426C24.0908 17.7424 24.0908 17.7422 24.0908 17.742L25.2592 14.5496C25.268 14.5255 25.2786 14.5025 25.2903 14.48C25.2942 14.4725 25.2988 14.4656 25.303 14.4583C25.3115 14.4437 25.3201 14.4293 25.3297 14.4157C25.3353 14.4078 25.3413 14.4002 25.3472 14.3926C25.3567 14.3803 25.3665 14.3685 25.377 14.3571C25.3836 14.3498 25.3904 14.3427 25.3974 14.3358C25.4085 14.3249 25.4199 14.3145 25.4317 14.3045C25.4389 14.2984 25.446 14.2922 25.4536 14.2864C25.4668 14.2763 25.4806 14.2671 25.4946 14.2581C25.5017 14.2537 25.5083 14.2488 25.5155 14.2446C25.5346 14.2335 25.5545 14.2235 25.575 14.2147C25.5776 14.2136 25.5799 14.2121 25.5825 14.211C25.604 14.202 25.6262 14.1942 25.649 14.1877C25.6506 14.1872 25.6522 14.1871 25.6539 14.1866C25.6613 14.1845 25.669 14.1833 25.6766 14.1816C25.694 14.1775 25.7115 14.1738 25.729 14.1714C25.7321 14.171 25.735 14.17 25.7382 14.1696C25.7444 14.1688 25.7505 14.1692 25.7567 14.1687C25.7729 14.1672 25.7891 14.1663 25.8053 14.1662C25.8152 14.1661 25.8248 14.1663 25.8346 14.1667C25.8503 14.1674 25.866 14.1688 25.8816 14.1708C25.891 14.172 25.9003 14.1731 25.9096 14.1746C25.9265 14.1776 25.943 14.1816 25.9595 14.186C25.967 14.188 25.9746 14.1895 25.9821 14.1918C26.0056 14.1991 26.0287 14.2076 26.0511 14.2178C26.0514 14.2179 26.0516 14.218 26.0518 14.2181C26.0745 14.2285 26.0965 14.2405 26.1179 14.2538C26.1245 14.2579 26.1305 14.2626 26.1369 14.2669C26.1483 14.2746 26.1599 14.2818 26.1709 14.2904C26.3038 14.3949 26.4467 14.5063 26.5958 14.6216C28.694 11.5563 30.5324 10.1355 31.5187 9.5312C31.3541 9.46082 31.2301 9.31942 31.1834 9.14611C31.1812 9.13781 30.9556 8.31066 30.5247 7.45834C30.159 6.73518 29.7609 6.22401 29.3692 5.96568C29.2555 6.3704 29.1206 6.95244 29.0727 7.56324C29.0726 7.58968 29.0712 7.61598 29.0677 7.64199C29.0309 8.20238 29.07 8.78133 29.2702 9.26585C29.3914 9.55919 29.2838 9.90822 28.9982 10.0467C28.6951 10.1937 28.3347 10.0562 28.204 9.7503C27.9324 9.11468 27.8646 8.38892 27.8958 7.69852C27.645 7.25211 26.6997 5.69977 24.9768 4.31666C24.7059 4.09904 24.6796 3.68948 24.9366 3.43903C25.1508 3.2302 25.4938 3.22985 25.7269 3.41758C26.8204 4.29838 27.6214 5.23043 28.1592 5.96126C28.2956 5.40994 28.4357 5.03461 28.4514 4.99348C28.5487 4.73748 28.8104 4.58321 29.0817 4.62216C30.9442 4.88949 31.9481 7.64424 32.2356 8.5737C34.28 9.63182 34.2646 12.5693 34.1944 13.5826C35.197 14.4712 35.8847 16.347 35.9662 16.5769C36.0186 16.7241 36.0098 16.8863 35.9419 17.027C35.4131 18.1235 33.9011 18.4542 33.0469 18.5536C31.8107 18.6975 30.5027 18.5486 29.6337 18.1647C29.3517 18.0401 28.8973 17.752 28.3895 17.4021C28.8986 18.0896 29.2977 18.5892 29.4523 18.7064C30.1149 19.2084 31.1695 20.517 31.2876 20.6645C31.4558 20.8748 31.4621 21.1782 31.286 21.3983C31.1726 21.5401 30.9951 21.6156 30.8134 21.6156H27.9562C27.8082 21.6156 27.6656 21.5595 27.5573 21.4586L24.8875 18.9727L24.7495 19.35C25.693 20.1259 25.796 20.8798 25.8052 20.9722C25.828 21.2021 25.7137 21.4304 25.4986 21.547C25.4097 21.5953 25.3082 21.6157 25.2069 21.6157H22.6563C22.4974 21.6157 22.3444 21.552 22.235 21.4368C20.8156 19.9398 21.151 15.9848 21.3551 14.3857L19.2608 14.2257C19.1439 14.5044 18.9856 14.7467 18.7975 14.9596C18.7843 15.0336 18.7566 15.1063 18.7135 15.1734C18.7101 15.1787 18.3677 15.7133 18.0746 16.3792C17.7325 17.1565 17.5958 17.8092 17.6998 18.1699C17.8218 18.5936 18.1597 18.8992 18.5174 19.2226C18.9901 19.6502 19.5786 20.1823 19.5484 21.0517C19.5374 21.3686 19.2679 21.6157 18.9508 21.6157H16.2301C15.9984 21.6157 15.7886 21.479 15.6949 21.2672L13.793 16.9685C13.5616 17.2204 13.42 17.6018 13.3937 17.942C13.3683 18.2684 13.4398 18.6585 13.7167 18.7741C15.2555 19.4172 15.1791 20.9983 15.175 21.0652C15.1566 21.3744 14.9004 21.6157 14.5908 21.6157H11.6578C11.4611 21.6157 11.277 21.5164 11.1688 21.3521C10.217 19.9055 9.66403 18.802 9.42827 17.8791C9.11018 16.6338 9.36724 15.6679 10.1922 15.0084C10.7759 14.5418 11.2669 13.5107 11.2222 12.8451C11.2167 12.7627 11.2036 12.6926 11.1829 12.6351C10.7981 13.0247 10.1071 14.1317 9.5831 14.9712C8.2933 17.0376 6.83123 19.3798 5.30448 20.0243C3.60525 20.7418 1.84843 20.7031 0.829048 19.9261C0.202782 19.4485 -0.08395 18.7467 0.0213089 17.9497ZM30.1066 17.0934C30.9812 17.48 32.4869 17.5288 33.5876 17.2682C33.3838 16.6586 33.3913 16.1337 33.6117 15.7025C33.7214 15.4879 33.8673 15.3289 34.0182 15.2109C33.8217 14.8973 33.6123 14.6235 33.406 14.4472C33.0641 14.4751 32.3174 14.5574 31.4721 14.7836C30.6015 15.0166 29.4826 15.447 28.7274 16.2101C29.3307 16.6384 29.8469 16.9787 30.1066 17.0934ZM33.0357 13.3058C33.0657 12.6018 33.0337 11.2557 32.4585 10.3398C31.8136 10.6738 29.8728 11.8884 27.5278 15.3318C27.609 15.3927 27.6904 15.4536 27.7719 15.5141C29.2721 13.8744 31.9133 13.4251 33.0357 13.3058ZM28.1861 20.4445H29.5627C29.2682 20.1183 28.9621 19.8035 28.7449 19.639C28.2447 19.2599 26.867 17.3239 25.9673 16.0206L25.3237 17.7792L28.1861 20.4445ZM16.6108 20.4445H18.1033C18.0039 20.3382 17.8791 20.2235 17.7318 20.0904C17.3117 19.7105 16.7889 19.2376 16.5746 18.4935C16.3672 17.7739 16.608 16.8602 16.9238 16.0899C16.2523 16.3154 15.5522 16.4456 14.9634 16.555C14.947 16.5865 14.9401 16.5997 14.9237 16.6312L16.6108 20.4445ZM9.91139 12.3395L8.44728 10.3873C8.2895 10.439 8.12673 10.4855 7.95946 10.5333C7.58146 10.6411 7.18778 10.7534 6.78778 10.9426L9.0128 13.6758C9.33391 13.1679 9.63759 12.7038 9.91139 12.3395ZM5.60935 18.422C5.9801 18.0849 6.3633 17.6343 6.74243 17.1304L6.2321 16.4848C6.03333 16.2333 6.05379 15.861 6.29904 15.6547C6.55293 15.4413 6.93093 15.4812 7.13519 15.7395L7.44702 16.1341C7.76497 15.6613 8.07167 15.1781 8.3563 14.7238L5.80749 11.5929C5.47414 11.891 5.14191 12.2823 4.81595 12.8056L6.05365 14.3713C6.24975 14.6195 6.23013 14.9852 5.991 15.1922C5.87942 15.2888 5.74301 15.3357 5.60752 15.3357C5.43462 15.3357 5.26348 15.2594 5.14789 15.1133L4.2197 13.9391C4.19833 13.9866 4.17695 14.0332 4.15565 14.0821C3.88052 14.7157 3.61432 15.2292 3.36084 15.6503L5.60935 18.422ZM1.53829 18.9945C2.26138 19.5457 3.58226 19.4131 4.60417 19.0409L2.6585 16.6426C2.22629 17.1508 1.8568 17.4087 1.57956 17.6018C1.25071 17.8308 1.21352 17.8639 1.18195 18.1029C1.13189 18.4819 1.24839 18.7736 1.53829 18.9945Z" fill="#282828"/>
</svg>
