<svg width="29" height="29" viewBox="0 0 29 29" fill="none" xmlns="http://www.w3.org/2000/svg">
<g clip-path="url(#clip0)">
<path d="M28.9836 6.91885C28.9811 6.89436 28.9765 6.87011 28.97 6.84635C28.825 6.1576 27.7395 5.75644 25.7689 5.09959C24.7388 4.78227 23.6674 4.61939 22.5896 4.61625C22.3445 3.67665 21.7017 2.65827 20.3 2.65827C19.747 2.65311 19.2337 2.945 18.9554 3.4229C18.6976 3.87759 18.5698 4.39445 18.5861 4.91689C18.5861 4.9454 18.5861 4.97392 18.589 5.00244C18.3473 5.08895 18.1028 5.17982 17.8514 5.27794C17.0511 5.61308 16.2209 5.872 15.3719 6.05127C14.4494 6.24384 13.4938 6.2085 12.5879 5.94832C11.4726 5.68328 10.3297 5.55234 9.18333 5.55827C5.43895 5.55827 0 8.75939 0 13.7749C0 17.7325 0.6177 19.6808 2.17983 20.5808C2.53122 22.2956 3.2944 24.0608 4.92082 24.7471C6.95903 25.648 10.1853 25.5504 14.2699 25.4281C15.9297 25.3798 17.6475 25.3314 19.4924 25.3314C20.749 25.3372 23.6974 25.3513 25.1686 25.9719C25.7532 26.2186 26.428 25.9548 26.69 25.3769C26.9521 24.799 26.7061 24.1175 26.1353 23.8404C23.7728 22.6876 19.1753 22.5566 14.7339 22.43C11.8697 22.3483 9.16352 22.2715 7.4733 21.9128C7.088 21.8424 6.71541 21.7146 6.36792 21.5339C6.22275 21.3096 6.11364 21.064 6.04457 20.806C6.94131 20.57 7.81948 20.2684 8.67197 19.9036C8.82325 20.2096 8.9726 20.5397 9.09972 20.8756C9.23944 21.2551 9.60061 21.5075 10.005 21.5083H14.2777C14.6146 21.5085 14.9274 21.3333 15.1032 21.0458C15.2789 20.7584 15.2923 20.4001 15.1385 20.1003C14.6489 19.1399 13.907 18.6083 13.05 18.6083C12.3207 18.6083 11.9195 18.5798 11.7334 18.2806C11.9016 18.1597 12.0582 18.0437 12.1984 17.9379C12.9717 17.3497 13.4009 17.0258 15.5464 16.6682C15.5619 16.6682 15.5774 16.6624 15.5948 16.6595C16.6619 17.0923 17.6478 17.7034 18.5102 18.4667C18.9591 18.9042 19.3085 19.4334 19.5344 20.0182C19.734 20.4899 19.9617 21.0249 20.7833 21.0249H23.1033C23.4176 21.0246 23.7124 20.8727 23.895 20.617C24.0752 20.3694 24.1229 20.0494 24.0226 19.7601C23.7709 18.9901 23.1616 18.3898 22.388 18.1496C21.5489 17.8702 20.5726 16.1679 19.909 14.4859C20.5019 13.9276 20.9587 13.2405 21.244 12.4777C21.6388 11.2867 21.8916 10.8749 24.1667 10.8749C26.7839 10.8749 28.9517 8.3703 28.9957 7.05177C28.9957 7.04452 28.9957 7.03727 28.9981 7.02954C29.0005 7.0218 28.9981 7.01504 28.9981 7.00827C28.995 6.97821 28.9901 6.94836 28.9836 6.91885ZM7.27417 22.8616C9.04993 23.2381 11.7982 23.3164 14.7074 23.3996C18.8461 23.517 23.5369 23.6509 25.7124 24.7123C25.8151 24.7586 25.8609 24.8795 25.8146 24.9822C25.7683 25.085 25.6474 25.1308 25.5447 25.0845C24.0908 24.4711 21.6717 24.3778 19.4962 24.3677H19.1956C17.4474 24.3677 15.8185 24.416 14.2405 24.4643C10.2795 24.5837 7.14947 24.6785 5.3041 23.8621C3.93385 23.2821 3.33838 21.5523 3.08077 20.1351C3.07835 20.1279 3.08077 20.1197 3.07642 20.1124C3.01213 19.7572 2.96767 19.4208 2.93867 19.1298C2.90134 18.7509 3.09848 18.3875 3.43643 18.2122C3.77438 18.0369 4.18502 18.085 4.47325 18.3337C4.67487 18.5101 4.79207 18.7638 4.79563 19.0317C4.81738 19.5227 4.94063 21.1956 5.5738 22.0844C5.86235 22.5233 6.85947 22.7722 7.27417 22.8616ZM24.1667 9.90827C21.546 9.90827 20.88 10.5013 20.3247 12.1722C20.1459 12.6466 19.8793 13.0829 19.5388 13.4584C19.4542 13.192 19.3797 12.9339 19.3188 12.6908C19.2779 12.5222 19.1497 12.3885 18.983 12.3405C18.8163 12.2924 18.6366 12.3375 18.5122 12.4584C18.3878 12.5794 18.3378 12.7577 18.3812 12.9257C18.5192 13.4588 18.6852 13.9843 18.8785 14.4999C18.8824 14.512 18.8867 14.5231 18.8916 14.5352C19.575 16.3719 20.7418 18.6208 22.0816 19.067C22.5637 19.2105 22.9452 19.5807 23.1033 20.0583H20.7833C20.6011 20.0583 20.6011 20.0583 20.4213 19.6383C20.1462 18.9405 19.7272 18.3084 19.1917 17.7832C17.6784 16.2699 14.7755 15.2907 14.6527 15.2496C14.5311 15.2091 14.3983 15.2185 14.2836 15.2759C14.169 15.3333 14.0818 15.4339 14.0413 15.5555C13.9962 15.6966 14.0195 15.8507 14.1042 15.9722C13.2076 16.1521 12.3694 16.5506 11.6638 17.1322C11.7401 16.7873 11.8336 16.4464 11.9441 16.1109C12.3028 14.9668 12.7484 13.5429 12.0326 12.1108C10.9132 9.87057 7.73575 8.9416 6.28333 8.9416C6.0164 8.9416 5.8 9.158 5.8 9.42494C5.8 9.69187 6.0164 9.90827 6.28333 9.90827C7.56368 9.90827 10.2911 10.7879 11.1674 12.541C11.7092 13.6241 11.3608 14.7406 11.0224 15.8199C10.8035 16.4046 10.6723 17.0185 10.6333 17.6416C10.6336 17.8169 10.6497 17.9918 10.6817 18.1641C10.6817 18.1776 10.6855 18.1907 10.6884 18.2042C10.9591 19.5711 12.2448 19.5749 13.05 19.5749C13.5387 19.5749 13.9514 19.8993 14.2777 20.5416L10.005 20.5334C9.81506 20.042 9.59538 19.5626 9.34718 19.0979C9.34741 19.0948 9.34741 19.0918 9.34718 19.0887C9.34429 19.0824 9.33848 19.0786 9.33558 19.0723C8.96777 18.3797 8.64297 17.8896 8.62122 17.8567C8.52538 17.713 8.36018 17.6314 8.18784 17.6426C8.0155 17.6537 7.86221 17.756 7.78571 17.9108C7.7092 18.0656 7.72111 18.2495 7.81695 18.3932C7.82082 18.3985 7.9895 18.6537 8.21715 19.0491C7.44763 19.3748 6.65625 19.6463 5.84882 19.8616C5.80532 19.5566 5.7768 19.2545 5.76472 18.9867C5.75053 18.4599 5.51785 17.9627 5.12244 17.6144C4.72702 17.266 4.2045 17.0978 3.6801 17.1501C2.66838 17.2454 1.91436 18.1256 1.97538 19.1399C1.39297 18.3748 0.966667 16.9016 0.966667 13.7749C0.966667 9.34905 5.83287 6.52494 9.18333 6.52494C10.2607 6.51827 11.3349 6.64193 12.3825 6.89324C13.4187 7.1815 14.5089 7.21762 15.5619 6.9986C16.4659 6.80781 17.3501 6.53272 18.2028 6.17694C18.3807 6.10782 18.5532 6.04015 18.7239 5.97732C19.0105 7.07255 19.736 7.97494 20.7833 7.97494C21.0503 7.97494 21.2667 7.75854 21.2667 7.4916C21.2667 7.22467 21.0503 7.00827 20.7833 7.00827C20.0583 7.00827 19.5528 5.90627 19.5528 4.91689C19.5386 4.57418 19.6164 4.23392 19.778 3.93137C19.8796 3.73828 20.0819 3.61952 20.3 3.62494C21.7191 3.62494 21.75 5.4703 21.75 5.55827C21.751 5.81758 21.9575 6.02938 22.2167 6.03707C22.4758 6.04477 22.6945 5.84558 22.7109 5.58679C23.6451 5.59708 24.5729 5.74179 25.4659 6.01647C25.8811 6.1547 26.4243 6.33644 26.9086 6.5201C26.8434 6.56233 26.7825 6.6109 26.7269 6.6651C26.5437 6.85475 26.5463 7.15621 26.7328 7.34265C26.9192 7.52909 27.2207 7.53171 27.4103 7.34854C27.5109 7.248 27.7438 7.26492 27.9599 7.31857C27.6114 8.20984 26.042 9.90827 24.1667 9.90827Z" fill="#282828"/>
<path d="M23.6835 6.5249H23.2001C22.9332 6.5249 22.7168 6.7413 22.7168 7.00823C22.7168 7.27517 22.9332 7.49157 23.2001 7.49157H23.6835C23.9504 7.49157 24.1668 7.27517 24.1668 7.00823C24.1668 6.7413 23.9504 6.5249 23.6835 6.5249Z" fill="#282828"/>
</g>
<defs>
<clipPath id="clip0">
<rect width="29" height="29" fill="white"/>
</clipPath>
</defs>
</svg>
