<svg width="27" height="27" viewBox="0 0 27 27" fill="none" xmlns="http://www.w3.org/2000/svg">
<path d="M26.654 26.5505L25.6983 19.5862C25.6906 19.5303 25.6711 19.4768 25.641 19.4292L24.103 16.9887V7.67951C24.103 7.46103 23.9259 7.284 23.7074 7.284C23.489 7.284 23.3119 7.46103 23.3119 7.67951V17.1028C23.3119 17.1774 23.333 17.2505 23.3728 17.3137L24.9262 19.7785L25.8086 26.2088H24.6455L22.1832 16.2156C22.1542 16.0983 22.0733 16.0006 21.9633 15.9504L15.1948 12.8629C15.1079 12.8232 15.0096 12.8164 14.9179 12.8436L13.9375 13.1354V4.36791C14.0328 4.16245 14.3807 3.48392 15.1109 2.77802C15.4308 2.46874 15.7798 2.19584 16.1549 1.95706V8.2493C16.1549 8.46778 16.3319 8.6448 16.5504 8.6448C16.7688 8.6448 16.9459 8.46778 16.9459 8.2493V1.52448C17.7549 1.14848 18.6659 0.909546 19.6739 0.813096C20.6744 0.717278 21.4895 0.937759 22.0956 1.46842C23.203 2.43794 23.3067 4.15407 23.3118 4.25811V6.03156C23.3118 6.25004 23.4889 6.42707 23.7073 6.42707C23.9258 6.42707 24.1028 6.25004 24.1028 6.03156V4.24962C24.1028 4.24519 24.1028 4.24076 24.1026 4.23633C24.0997 4.14974 24.0152 2.10202 22.6212 0.877273C21.8442 0.194682 20.8275 -0.0919809 19.5985 0.0257217C17.0272 0.271779 15.4226 1.3658 14.5293 2.24024C13.5508 3.198 13.1888 4.10244 13.1738 4.14052C13.1558 4.18655 13.1465 4.2356 13.1465 4.28506V6.00493H12.3744C12.2695 6.00493 12.1689 6.04659 12.0947 6.12079L9.86341 8.3525C9.77909 8.1133 9.69719 7.89313 9.62041 7.69443C9.49437 7.36779 9.16531 7.17806 8.81969 7.23364C8.47397 7.28906 8.22016 7.57224 8.20249 7.92282C8.14696 9.04986 8.14533 10.7938 8.45282 12.7023C8.56182 13.3785 8.68374 14.035 8.8159 14.6598L8.42493 14.7762C8.37177 14.3717 8.31149 13.9585 8.24442 13.542C7.93745 11.6366 7.38764 9.97993 6.98027 8.92514C6.85355 8.5985 6.52375 8.40908 6.17808 8.4654C5.83283 8.5213 5.57976 8.80459 5.56267 9.15422C5.52724 9.87335 5.51389 10.844 5.58867 11.9481C5.07683 11.0953 4.57639 10.3832 4.18352 9.86143C3.97247 9.58173 3.60344 9.49003 3.28624 9.63837C2.96926 9.78655 2.80325 10.1282 2.88235 10.4689C3.1368 11.5687 3.61156 13.2473 4.42847 14.9982C4.60513 15.3771 4.78922 15.7565 4.97685 16.1301L3.62269 17.6187C3.47567 17.7803 3.48753 18.0305 3.64911 18.1775C3.81069 18.3244 4.06091 18.3126 4.20783 18.151L5.82223 16.3763L15.0013 13.644L21.4607 16.5906L23.8306 26.2088H20.8099C20.7143 26.2088 20.6266 26.2427 20.5583 26.2991C20.4703 26.3717 20.4142 26.4815 20.4142 26.6045C20.4142 26.823 20.5912 27 20.8097 27H24.3355C24.3367 27 24.3379 26.9998 24.3391 26.9998H26.2619C26.3762 26.9998 26.4849 26.9503 26.56 26.8642C26.6354 26.7781 26.6695 26.6637 26.654 26.5505ZM5.60428 15.6159C5.44771 15.3008 5.29394 14.9821 5.14555 14.6638C4.42161 13.1122 3.9758 11.6173 3.71735 10.56C4.32405 11.387 5.13284 12.6078 5.83473 14.0631C5.9132 14.5411 5.99868 15.0126 6.09012 15.4713L5.60428 15.6159ZM6.85123 15.2447C6.7589 14.7768 6.67257 14.2954 6.59405 13.8078C6.32157 12.1165 6.3009 10.5568 6.34098 9.46967C6.72093 10.4906 7.19163 11.979 7.46374 13.6679C7.53657 14.1201 7.60116 14.568 7.65706 15.0049L6.85123 15.2447ZM9.57659 14.4335C9.45219 13.8401 9.33728 13.2173 9.23397 12.5765C8.96144 10.8848 8.94077 9.32492 8.98085 8.23822C9.36069 9.25842 9.83135 10.7464 10.1036 12.4361C10.2006 13.0374 10.2834 13.6303 10.3504 14.2031L9.57659 14.4335ZM13.1466 13.3709L11.1195 13.9743C11.0541 13.4326 10.9757 12.8751 10.8845 12.3102C10.6979 11.1521 10.4218 10.0867 10.1425 9.19234L12.5384 6.796H13.1466V13.3709Z" fill="#282828"/>
<path d="M19.1625 26.2088H1.13335V21.5316L3.09812 19.3716C3.24509 19.21 3.23328 18.9599 3.07165 18.8129C2.91007 18.6658 2.6599 18.6777 2.51293 18.8393L0.445222 21.1125C0.378988 21.1853 0.342285 21.2803 0.342285 21.3787V26.6043C0.342285 26.8228 0.519367 26.9998 0.737791 26.9998H19.1624C19.3809 26.9998 19.5579 26.8228 19.5579 26.6043C19.5579 26.3858 19.381 26.2088 19.1625 26.2088Z" fill="#282828"/>
<path d="M19.4111 17.7249C19.1927 17.7249 19.0156 17.9019 19.0156 18.1204V18.1715C19.0156 18.39 19.1927 18.567 19.4111 18.567C19.6296 18.567 19.8066 18.39 19.8066 18.1715V18.1204C19.8066 17.9019 19.6296 17.7249 19.4111 17.7249Z" fill="#282828"/>
<path d="M18.1318 18.9312C17.9134 18.9312 17.7363 19.1082 17.7363 19.3267V19.3778C17.7363 19.5963 17.9134 19.7733 18.1318 19.7733C18.3503 19.7733 18.5273 19.5963 18.5273 19.3778V19.3267C18.5273 19.1082 18.3503 18.9312 18.1318 18.9312Z" fill="#282828"/>
<path d="M19.9023 20.6013C19.6839 20.6013 19.5068 20.7783 19.5068 20.9968V21.048C19.5068 21.2665 19.6839 21.4435 19.9023 21.4435C20.1208 21.4435 20.2978 21.2665 20.2978 21.048V20.9968C20.2978 20.7784 20.1208 20.6013 19.9023 20.6013Z" fill="#282828"/>
<path d="M21.0459 4.68933C20.8274 4.68933 20.6504 4.86636 20.6504 5.08484V5.13599C20.6504 5.35447 20.8274 5.5315 21.0459 5.5315C21.2644 5.5315 21.4414 5.35441 21.4414 5.13599V5.08484C21.4414 4.86636 21.2644 4.68933 21.0459 4.68933Z" fill="#282828"/>
<path d="M19.9023 6.15662C19.6839 6.15662 19.5068 6.3337 19.5068 6.55213V6.60328C19.5068 6.82176 19.6839 6.99879 19.9023 6.99879C20.1208 6.99879 20.2978 6.82176 20.2978 6.60328V6.55213C20.2978 6.33365 20.1208 6.15662 19.9023 6.15662Z" fill="#282828"/>
<path d="M21.4272 9.03296C21.2088 9.03296 21.0317 9.20999 21.0317 9.42847V12.2825C21.0317 12.501 21.2088 12.6781 21.4272 12.6781C21.6457 12.6781 21.8228 12.501 21.8228 12.2825V9.42847C21.8228 9.20999 21.6457 9.03296 21.4272 9.03296Z" fill="#282828"/>
<path d="M12.9892 22.4811L12.8709 20.7753C12.8583 20.5934 12.7229 20.4437 12.5431 20.4129L8.33653 19.6919C8.20285 19.6693 8.06674 19.7162 7.97593 19.817L5.78873 22.2437C5.6425 22.4059 5.65547 22.656 5.81773 22.8023C5.98005 22.9485 6.23012 22.9355 6.37635 22.7733L8.41769 20.5084L12.1033 21.1401L12.2001 22.5359C12.2145 22.7445 12.3883 22.904 12.5942 22.904C12.6034 22.904 12.6127 22.9037 12.622 22.9031C12.8399 22.8879 13.0043 22.699 12.9892 22.4811Z" fill="#282828"/>
</svg>
