<svg width="29" height="29" viewBox="0 0 29 29" fill="none" xmlns="http://www.w3.org/2000/svg">
<path d="M14.5 0C6.49214 0 0 6.49185 0 14.5C0 22.5082 6.49214 29 14.5 29C22.5079 29 29 22.5082 29 14.5C29 6.49185 22.5079 0 14.5 0ZM21.8552 16.0682C22.531 16.7283 23.246 17.3496 23.8527 18.0779C24.1215 18.4001 24.3748 18.7333 24.5677 19.108C24.843 19.6423 24.5944 20.2282 24.1161 20.26L21.1455 20.2594C20.3783 20.3228 19.7678 20.0134 19.253 19.4889C18.8421 19.0709 18.4609 18.6244 18.0651 18.1921C17.9035 18.0147 17.7332 17.8477 17.5302 17.7163C17.1253 17.4528 16.7734 17.5335 16.5414 17.9566C16.305 18.387 16.251 18.8641 16.2284 19.3432C16.1961 20.0437 15.9849 20.2267 15.282 20.2597C13.7803 20.33 12.3553 20.1021 11.031 19.345C9.86267 18.6772 8.9584 17.7346 8.17043 16.6675C6.63603 14.5872 5.4609 12.304 4.40503 9.95523C4.1674 9.42626 4.34125 9.14323 4.92481 9.13226C5.89434 9.11357 6.86388 9.11594 7.83341 9.13137C8.22799 9.1376 8.48906 9.36337 8.64067 9.73569C9.16459 11.0247 9.8069 12.2512 10.6118 13.3887C10.8263 13.6916 11.0452 13.9936 11.357 14.2075C11.7012 14.4436 11.9634 14.3656 12.1257 13.9814C12.2295 13.7372 12.2743 13.4762 12.2969 13.2145C12.374 12.3183 12.3832 11.4223 12.2497 10.5296C12.1667 9.97096 11.8525 9.6102 11.2956 9.50458C11.012 9.45088 11.0535 9.34586 11.1915 9.18388C11.4309 8.90382 11.6552 8.73056 12.1035 8.73056L15.4597 8.72997C15.9887 8.8338 16.1074 9.07114 16.1792 9.60397L16.1821 13.3338C16.1759 13.54 16.2857 14.1511 16.6559 14.2861C16.9526 14.384 17.1484 14.1461 17.3258 13.9583C18.1307 13.1041 18.7042 12.096 19.2177 11.0526C19.4444 10.5925 19.6399 10.1163 19.8298 9.63927C19.971 9.28653 20.1905 9.11297 20.5887 9.11891L23.8206 9.12276C23.9159 9.12276 24.0126 9.12365 24.1069 9.13997C24.6516 9.23313 24.8009 9.4675 24.6323 9.99884C24.3671 10.8337 23.8518 11.5291 23.348 12.2263C22.8081 12.9727 22.2322 13.693 21.6976 14.4427C21.2063 15.1281 21.2452 15.4731 21.8552 16.0682Z" fill="white"/>
</svg>
