<svg width="32" height="32" viewBox="0 0 32 32" fill="none" xmlns="http://www.w3.org/2000/svg">
<path d="M21.5 22V20.5H22C22.1326 20.5 22.2598 20.4473 22.3536 20.3536C22.4473 20.2598 22.5 20.1326 22.5 20V17.5C22.5 17.3674 22.4473 17.2402 22.3536 17.1464C22.2598 17.0527 22.1326 17 22 17H21.5V4.5C21.4989 3.57207 21.1299 2.68244 20.4737 2.0263C19.8176 1.37015 18.9279 1.00106 18 1H14C13.0721 1.00106 12.1824 1.37015 11.5263 2.0263C10.8701 2.68244 10.5011 3.57207 10.5 4.5V17H10C9.86739 17 9.74021 17.0527 9.64645 17.1464C9.55268 17.2402 9.5 17.3674 9.5 17.5V20C9.5 20.1326 9.55268 20.2598 9.64645 20.3536C9.74021 20.4473 9.86739 20.5 10 20.5H10.5V22C10.5313 22.4367 10.6564 22.8616 10.8665 23.2457C11.0767 23.6298 11.3671 23.9641 11.718 24.226C11.5298 24.3395 11.3691 24.4934 11.2475 24.6766C11.126 24.8598 11.0467 25.0677 11.0153 25.2853C10.9839 25.5029 11.0013 25.7247 11.0661 25.9348C11.1309 26.1448 11.2415 26.3379 11.39 26.5C11.2078 26.6993 11.0833 26.9444 11.0298 27.2091C10.9762 27.4737 10.9957 27.7479 11.086 28.0024C11.1764 28.2568 11.3343 28.4819 11.5427 28.6535C11.7512 28.8251 12.0024 28.9367 12.2695 28.9765L14.293 31H17.707L19.7305 28.9765C19.9976 28.9367 20.2488 28.8251 20.4573 28.6535C20.6657 28.4819 20.8236 28.2568 20.914 28.0024C21.0043 27.7479 21.0238 27.4737 20.9702 27.2091C20.9167 26.9444 20.7922 26.6993 20.61 26.5C20.7585 26.3379 20.8691 26.1448 20.9339 25.9348C20.9987 25.7247 21.0161 25.5029 20.9847 25.2853C20.9533 25.0677 20.874 24.8598 20.7525 24.6766C20.6309 24.4934 20.4703 24.3395 20.282 24.226C20.6329 23.9641 20.9233 23.6298 21.1335 23.2457C21.3436 22.8616 21.4687 22.4367 21.5 22ZM11.5 4.5C11.5008 3.8372 11.7644 3.20178 12.2331 2.73311C12.7018 2.26444 13.3372 2.00079 14 2H18C18.6628 2.00079 19.2982 2.26444 19.7669 2.73311C20.2356 3.20178 20.4992 3.8372 20.5 4.5V17H19.5V4.5C19.5 4.10218 19.342 3.72064 19.0607 3.43934C18.7794 3.15804 18.3978 3 18 3C17.6022 3 17.2206 3.15804 16.9393 3.43934C16.658 3.72064 16.5 4.10218 16.5 4.5V17H15.5V4.5C15.5 4.10218 15.342 3.72064 15.0607 3.43934C14.7794 3.15804 14.3978 3 14 3C13.6022 3 13.2206 3.15804 12.9393 3.43934C12.658 3.72064 12.5 4.10218 12.5 4.5V17H11.5V4.5ZM17.5 15V14H18.5V15H17.5ZM18.5 16V17H17.5V16H18.5ZM17.5 13V12H18.5V13H17.5ZM17.5 11V10H18.5V11H17.5ZM17.5 9V8H18.5V9H17.5ZM17.5 7V6H18.5V7H17.5ZM17.5 5V4.5C17.5 4.36739 17.5527 4.24021 17.6464 4.14645C17.7402 4.05268 17.8674 4 18 4C18.1326 4 18.2598 4.05268 18.3536 4.14645C18.4473 4.24021 18.5 4.36739 18.5 4.5V5H17.5ZM13.5 15V14H14.5V15H13.5ZM14.5 16V17H13.5V16H14.5ZM13.5 13V12H14.5V13H13.5ZM13.5 11V10H14.5V11H13.5ZM13.5 9V8H14.5V9H13.5ZM13.5 7V6H14.5V7H13.5ZM13.5 5V4.5C13.5 4.36739 13.5527 4.24021 13.6464 4.14645C13.7402 4.05268 13.8674 4 14 4C14.1326 4 14.2598 4.05268 14.3536 4.14645C14.4473 4.24021 14.5 4.36739 14.5 4.5V5H13.5ZM10.5 19.5V18H21.5V19.5H10.5ZM17.293 30H14.707L13.707 29H18.293L17.293 30ZM19.5 28H12.5C12.3674 28 12.2402 27.9473 12.1464 27.8536C12.0527 27.7598 12 27.6326 12 27.5C12 27.3674 12.0527 27.2402 12.1464 27.1464C12.2402 27.0527 12.3674 27 12.5 27H19.5C19.6326 27 19.7598 27.0527 19.8536 27.1464C19.9473 27.2402 20 27.3674 20 27.5C20 27.6326 19.9473 27.7598 19.8536 27.8536C19.7598 27.9473 19.6326 28 19.5 28ZM19.5 26H12.5C12.3674 26 12.2402 25.9473 12.1464 25.8536C12.0527 25.7598 12 25.6326 12 25.5C12 25.3674 12.0527 25.2402 12.1464 25.1464C12.2402 25.0527 12.3674 25 12.5 25H19.5C19.6326 25 19.7598 25.0527 19.8536 25.1464C19.9473 25.2402 20 25.3674 20 25.5C20 25.6326 19.9473 25.7598 19.8536 25.8536C19.7598 25.9473 19.6326 26 19.5 26ZM20.5 22C20.5 22.909 19.408 23.704 18.8755 24H13.1255C12.765 23.793 11.5 23 11.5 22V20.5H12.5V22.5H13.5V20.5H14.5V23H15.5V20.5H16.5V23H17.5V20.5H18.5V22.5H19.5V20.5H20.5V22Z" fill="#282828"/>
</svg>
