<svg width="20" height="20" viewBox="0 0 20 20" fill="none" xmlns="http://www.w3.org/2000/svg">
<path d="M9.99997 0.201355C4.48598 0.201355 0 4.47659 0 9.73152C0 14.9865 4.48598 19.2617 9.99997 19.2617C12.5971 19.2617 15.058 18.3173 16.9297 16.6024C17.0917 16.454 17.0968 16.2084 16.941 16.054C16.7853 15.8997 16.5277 15.8947 16.3656 16.0432C14.6464 17.6185 12.3857 18.4859 10 18.4859C4.93483 18.486 0.813993 14.5588 0.813993 9.73152C0.813993 4.90428 4.93483 0.977106 9.99997 0.977106C15.0651 0.977106 19.1859 4.90435 19.1859 9.73152C19.1859 10.8203 18.9789 11.8825 18.5706 12.8885C18.4896 13.0883 18.5938 13.3129 18.8034 13.3902C19.0132 13.4673 19.2488 13.3682 19.3299 13.1684C19.7745 12.0727 20 10.9164 20 9.73146C20 4.47658 15.514 0.201355 9.99997 0.201355Z" fill="black"/>
<path d="M11.3701 10.5534C11.2093 10.4035 10.9517 10.4062 10.7945 10.5592C10.6373 10.7123 10.6401 10.9579 10.8006 11.1077L14.0048 14.0967C14.084 14.1706 14.1868 14.2074 14.2895 14.2074C14.3951 14.2074 14.5006 14.1684 14.5803 14.0908C14.7376 13.9377 14.7348 13.6921 14.5742 13.5423L11.3701 10.5534Z" fill="black"/>
<path d="M8.49118 8.84213C8.57061 8.91783 8.6748 8.95571 8.77899 8.95571C8.88318 8.95571 8.98731 8.91783 9.06681 8.84213C9.22574 8.69066 9.22574 8.44507 9.06681 8.29361L5.99833 5.36928C5.8394 5.21782 5.58163 5.21782 5.42277 5.36928C5.26384 5.52075 5.26384 5.76634 5.42277 5.9178L8.49118 8.84213Z" fill="black"/>
<path d="M14.5773 5.36928C14.4183 5.21782 14.1606 5.21782 14.0017 5.36928L5.42268 13.5452C5.26375 13.6967 5.26375 13.9423 5.42268 14.0938C5.50212 14.1695 5.60631 14.2074 5.7105 14.2074C5.81469 14.2074 5.91881 14.1695 5.99831 14.0938L14.5773 5.91787C14.7362 5.76634 14.7362 5.52081 14.5773 5.36928Z" fill="black"/>
</svg>
