<svg width="32" height="32" viewBox="0 0 32 32" fill="none" xmlns="http://www.w3.org/2000/svg">
<path d="M26.3147 11.6473C26.3142 11.647 26.3137 11.6467 26.3132 11.6464C26.3131 11.6464 26.3131 11.6464 26.3131 11.6464C26.2979 11.6377 26.2407 11.6059 26.1492 11.5611C25.8349 11.4057 25.1054 11.0834 24.2507 10.9637C22.6784 10.7435 21.4609 11.2999 20.7291 12.5727C19.7953 14.1967 20.0822 16.19 20.4455 18.7137C20.696 20.4538 20.9799 22.4261 20.9799 24.8098C20.9799 25.0284 20.9634 25.2424 20.9311 25.4459C20.8905 25.7016 21.0648 25.9419 21.3204 25.9825C21.5762 26.0231 21.8164 25.8487 21.857 25.5932C21.8971 25.3412 21.9174 25.0776 21.9174 24.8099C21.9174 22.3591 21.6284 20.3514 21.3734 18.5801C21.1249 16.854 20.9254 15.467 21.1048 14.3274C21.0984 15.3584 21.3863 16.6527 21.7259 18.1794C22.1489 20.0807 22.6752 22.4468 22.7756 25.0368C22.8367 26.6149 22.1993 28.1869 21.0269 29.3498C19.8396 30.5272 18.2849 31.1336 16.6468 31.0561C15.0887 30.9828 13.6364 30.2939 12.5574 29.1162C11.4855 27.9461 10.8951 26.4256 10.8951 24.8347V14.9982C10.8951 14.3666 11.1296 13.7614 11.5553 13.2941C12.0987 12.6978 12.3981 11.8712 12.3981 10.9668V10.6865C12.3981 9.76237 11.9929 8.8675 11.2573 8.16669C10.7659 7.6985 10.483 7.09019 10.4122 6.35537C10.5726 6.41556 10.7461 6.44863 10.9273 6.44863C11.7383 6.44863 12.3981 5.78881 12.3981 4.97781V4.47687C12.3981 3.72237 11.8269 3.09906 11.0942 3.01588C11.7032 1.74581 12.5893 0.9375 13.4324 0.9375C14.273 0.9375 15.1609 1.74656 15.7704 3.01588C15.0378 3.09913 14.4667 3.72244 14.4667 4.47687V4.97788C14.4667 5.78888 15.1265 6.44869 15.9374 6.44869C16.1186 6.44869 16.2921 6.41556 16.4524 6.35544C16.3817 7.09031 16.0988 7.69863 15.6074 8.16675C14.8717 8.86756 14.4667 9.76244 14.4667 10.6866V10.9668C14.4667 11.8713 14.766 12.6978 15.3094 13.2941C15.7352 13.7614 15.9697 14.3666 15.9697 14.9982C15.9697 16.7316 15.6752 18.5043 15.3904 20.2188C15.1083 21.9168 14.8167 23.6727 14.8167 25.3748C14.8167 26.3273 15.1322 27.2203 15.7053 27.8893C16.3157 28.6018 17.1681 28.9943 18.1056 28.9943C18.1134 28.9943 18.1211 28.9941 18.1289 28.9937C19.1117 28.9447 20.0332 28.5409 20.7239 27.8567C20.9077 27.6745 20.9092 27.3777 20.727 27.1938C20.5447 27.0099 20.248 27.0086 20.0641 27.1907C19.5406 27.7094 18.8413 28.0168 18.0939 28.0568C16.5742 28.0497 15.7542 26.6716 15.7542 25.3748C15.7542 24.5899 15.8182 23.8013 15.9164 23L17.5616 22.1706L17.1618 23.3701C17.0092 23.8277 17.0909 24.3316 17.3805 24.7177L18.5686 26.3018C18.6607 26.4246 18.8014 26.4893 18.9439 26.4893C19.0417 26.4893 19.1406 26.4587 19.2248 26.3955C19.4319 26.2402 19.4739 25.9463 19.3186 25.7393L18.8206 25.0753L19.7019 24.8813C19.9547 24.8256 20.1146 24.5756 20.059 24.3228C20.0033 24.0699 19.7531 23.9102 19.5004 23.9656L18.2026 24.2512L18.1305 24.1551C18.0255 24.0152 17.9959 23.8325 18.0512 23.6666L18.8106 21.3884C18.9861 20.8617 18.8756 20.2955 18.515 19.8734C18.1544 19.4514 17.6126 19.254 17.0646 19.3452L16.4676 19.4447C16.7026 17.9846 16.9072 16.4911 16.9072 14.9982C16.9072 14.6121 16.8429 14.2332 16.7202 13.8751L17.9192 13.5968C18.4803 13.4666 18.9159 13.0174 19.0289 12.4526L19.4946 10.124L21.1334 9.41631C21.3711 9.31369 21.4806 9.03781 21.3779 8.80019C21.2753 8.56256 20.9994 8.45306 20.7617 8.55569L19.7181 9.00638L19.9042 8.07594C19.955 7.82206 19.7903 7.57512 19.5364 7.52437C19.2826 7.47375 19.0356 7.63825 18.9849 7.89213L18.1096 12.2688C18.0686 12.4736 17.9107 12.6364 17.7072 12.6836L16.2827 13.0143C16.1972 12.892 16.104 12.7743 16.0023 12.6628C15.6166 12.2394 15.4041 11.6372 15.4041 10.9669V10.6866C15.4041 10.0215 15.7059 9.36769 16.254 8.84556C17.0091 8.12625 17.4082 7.13538 17.4082 5.97994V4.47687C17.4082 4.05575 17.23 3.67569 16.9454 3.40738C16.6184 2.48369 16.1547 1.68119 15.6016 1.08413C14.9444 0.374875 14.1943 0 13.4324 0C12.0239 0 10.6531 1.334 9.9195 3.40706C9.63475 3.67544 9.45643 4.05562 9.45643 4.47687V5.97994C9.45643 7.13525 9.85556 8.12613 10.6106 8.8455C11.1587 9.36763 11.4606 10.0215 11.4606 10.6866V10.9668C11.4606 11.6371 11.2481 12.2394 10.8623 12.6627C10.7606 12.7743 10.6674 12.892 10.5819 13.0142L9.15743 12.6836C8.95399 12.6364 8.79612 12.4735 8.75512 12.2687L7.87975 7.892C7.82893 7.63819 7.58206 7.47369 7.32818 7.52425C7.07431 7.57506 6.90968 7.822 6.96043 8.07581L7.14656 9.00625L6.10293 8.55562C5.865 8.45294 5.58931 8.56244 5.48675 8.80013C5.38418 9.03781 5.49356 9.31369 5.73125 9.41625L7.37012 10.1239L7.83587 12.4526C7.94887 13.0174 8.38443 13.4666 8.9455 13.5968L10.1444 13.8751C10.0219 14.2332 9.9575 14.6119 9.9575 14.9981V19.518L8.95443 19.3451C8.40706 19.2541 7.86481 19.4513 7.50418 19.8734C7.14356 20.2954 7.03312 20.8617 7.20862 21.3883L7.968 23.6665C8.02337 23.8324 7.99368 24.0151 7.88875 24.1551L7.81668 24.2511L6.51881 23.9656C6.26556 23.91 6.01587 24.0699 5.96025 24.3227C5.90462 24.5755 6.0645 24.8256 6.31737 24.8813L7.19868 25.0752L6.70068 25.7392C6.54537 25.9462 6.58737 26.2401 6.79443 26.3954C6.87881 26.4587 6.9775 26.4892 7.07531 26.4892C7.21781 26.4892 7.35856 26.4245 7.45068 26.3017L8.63875 24.7176C8.92825 24.3316 9.00993 23.8278 8.85737 23.37L8.45487 22.1626L9.95743 22.9105V24.8344C9.95743 26.6604 10.6353 28.4059 11.8661 29.7493C13.1133 31.1107 14.7954 31.9073 16.6026 31.9924C16.7107 31.9975 16.8184 32.0001 16.926 32C18.709 31.9999 20.3892 31.3022 21.6869 30.0152C23.0453 28.668 23.7836 26.8401 23.7122 25.0003C23.6086 22.3257 23.0721 19.9137 22.6409 17.9757C22.2031 16.0077 21.8574 14.4532 22.1454 13.5546C22.3867 12.8014 22.7817 12.3126 23.3191 12.1018C24.2757 11.7266 25.4676 12.2676 25.7757 12.4226C25.8245 12.4473 25.8514 12.4622 25.8527 12.4629C26.0779 12.5899 26.3634 12.5104 26.4907 12.2856C26.6182 12.0607 26.5395 11.7751 26.3147 11.6473ZM16.3071 20.4219L17.2188 20.27C17.4422 20.2325 17.6551 20.3101 17.8023 20.4824C17.9111 20.6097 17.9627 20.7643 17.9536 20.9231L16.0733 21.871C16.146 21.3944 16.2257 20.912 16.3071 20.4219ZM16.4707 4.47687V4.97788C16.4707 5.27194 16.2315 5.51119 15.9374 5.51119C15.6434 5.51119 15.4042 5.27194 15.4042 4.97788V4.47687C15.4042 4.18281 15.6434 3.94362 15.9374 3.94362C16.2315 3.94362 16.4707 4.18287 16.4707 4.47687ZM10.394 4.47687C10.394 4.18281 10.6332 3.94362 10.9273 3.94362C11.2214 3.94362 11.4606 4.18281 11.4606 4.47687V4.97788C11.4606 5.27194 11.2214 5.51119 10.9273 5.51119C10.6332 5.51119 10.394 5.27194 10.394 4.97788V4.47687ZM9.9575 21.8634L8.06562 20.9218C8.05687 20.7635 8.10843 20.6094 8.21693 20.4825C8.36406 20.3102 8.57656 20.2326 8.79781 20.2696L9.9575 20.4694V21.8634Z" fill="white"/>
</svg>
