<svg width="32" height="32" viewBox="0 0 32 32" fill="none" xmlns="http://www.w3.org/2000/svg">
<path d="M23.9749 17.7926C24.08 17.7435 24.2003 17.7381 24.3093 17.7777C24.4184 17.8173 24.5073 17.8985 24.5564 18.0036C24.9539 18.8536 25.0754 19.6219 24.9172 20.2891C24.8944 20.3848 24.8402 20.4701 24.763 20.5311C24.6859 20.5922 24.5905 20.6254 24.4922 20.6256C24.458 20.6256 24.4239 20.6217 24.3907 20.6139C24.3347 20.6006 24.2819 20.5765 24.2353 20.5429C24.1887 20.5092 24.1492 20.4667 24.119 20.4178C24.0888 20.3689 24.0686 20.3145 24.0594 20.2578C24.0503 20.201 24.0524 20.143 24.0657 20.0871C24.1769 19.6169 24.0757 19.0406 23.7639 18.3741C23.7395 18.3221 23.7256 18.2658 23.723 18.2084C23.7205 18.151 23.7292 18.0936 23.7488 18.0396C23.7684 17.9856 23.7985 17.936 23.8373 17.8936C23.8761 17.8512 23.9228 17.8169 23.9749 17.7926Z" fill="white"/>
<path d="M1.188 17.025C1.18541 16.9668 1.19449 16.9087 1.21471 16.8541C1.23494 16.7994 1.26589 16.7494 1.30575 16.707C1.80025 16.1792 2.29425 15.6732 2.773 15.2047C7.48075 10.563 11.7928 8.17297 15.5888 8.09997C19.3243 8.02647 21.9105 8.17497 23.758 10.796L23.761 10.8002L23.7622 10.8025C23.827 10.8947 23.8888 10.9922 23.9508 11.0892C24.073 9.32822 24.5693 7.45472 25.493 6.43922C25.7057 6.1843 25.9711 5.97852 26.271 5.83609C26.5708 5.69366 26.898 5.61797 27.23 5.61422C27.335 5.61422 27.4408 5.61422 27.5465 5.61197C28.4193 5.60397 29.4078 5.59247 30.0788 6.25697C30.5725 6.74372 30.8125 7.51497 30.8125 8.61247C30.8125 10.6227 29.7273 10.9562 29.009 11.1767C28.5217 11.3267 28.4383 11.381 28.4135 11.569L28.4048 11.634C28.1451 13.8038 27.326 15.8689 26.0278 17.6267C26.4665 18.5656 26.5893 19.6214 26.3777 20.636C26.0455 22.036 24.0375 25.4192 20.2343 26.3575C20.1451 26.3795 20.0536 26.3906 19.9618 26.3905C19.6417 26.3889 19.3353 26.2607 19.1096 26.0338C18.8838 25.807 18.7571 25.5 18.757 25.18C18.7565 24.9997 18.7969 24.8217 18.8752 24.6594C18.9536 24.4971 19.0678 24.3547 19.2093 24.243C20.8893 22.9037 21.655 21.9367 21.6165 21.1855C19.4915 22.1917 16.9225 22.718 13.957 22.7375C13.5175 22.7375 13.0948 22.7247 12.686 22.705C12.2292 23.5987 11.5891 24.386 10.8075 25.0157C10.0259 25.6454 9.12042 26.1033 8.15 26.3595C8.07047 26.3795 7.98876 26.3895 7.90675 26.3895C7.68824 26.3889 7.47556 26.3189 7.2995 26.1895C7.17 26.0953 7.06402 25.9725 6.98982 25.8306C6.91562 25.6888 6.87522 25.5317 6.87176 25.3716C6.8683 25.2115 6.90187 25.0528 6.96987 24.9079C7.03787 24.7629 7.13844 24.6356 7.26375 24.536C8.093 23.8742 9.141 22.9432 9.11375 22.2247C6.075 21.489 4.65725 20.0997 3.9995 18.9952C3.04021 18.5615 2.14305 18.0017 1.33175 17.3307C1.28858 17.2919 1.25361 17.2449 1.22892 17.1924C1.20423 17.1399 1.19032 17.083 1.188 17.025ZM8.64875 11.4895L10.354 13.2915L13.8248 13.479L15.0855 11.9322L13.0788 9.37697C11.5053 9.85694 10.0122 10.5689 8.64875 11.4895ZM14.5562 13.9662L16.5463 17.2912C18.775 16.6715 20.3405 15.675 21.3665 14.5852L18.6 12.0797L15.8697 12.3547L14.5562 13.9662ZM13.7673 14.352L10.4295 14.1715L8.8445 17.6177C10.3994 17.9237 11.9913 17.996 13.5675 17.8322C14.2695 17.7639 14.967 17.6554 15.6565 17.5072L13.7673 14.352ZM7.975 17.4152L9.63525 13.8047L7.91475 11.987C6.44084 13.0407 5.05016 14.2062 3.755 15.4732C5.03547 16.3655 6.46436 17.0231 7.975 17.4152ZM15.6057 8.97497C15.0713 8.9886 14.539 9.04799 14.0147 9.15247L15.8412 11.4775L17.2587 11.335L18.4668 11.2132L19.505 9.14322C18.4067 8.95172 17.125 8.94497 15.6057 8.97497ZM20.3795 9.35197L19.29 11.525L21.925 13.9112C22.5308 13.1265 22.8903 12.1798 22.9583 11.1907C22.3288 10.3064 21.4207 9.65891 20.3795 9.35197ZM27.5462 11.452C27.6482 10.6787 28.2863 10.4827 28.752 10.3395C29.21 10.2 29.6 10.079 29.8 9.56722C29.3952 9.61235 28.9883 9.63496 28.581 9.63497C28.0035 9.63497 27.586 9.59497 27.5535 9.59247C27.4962 9.58711 27.4405 9.5705 27.3896 9.54359C27.3387 9.51668 27.2937 9.48 27.257 9.43565C27.2203 9.3913 27.1927 9.34014 27.1758 9.28512C27.1589 9.23009 27.153 9.17227 27.1585 9.11497C27.1711 9.00015 27.2281 8.8948 27.3173 8.82145C27.4065 8.74811 27.5209 8.71258 27.636 8.72247C28.4024 8.78403 29.1732 8.76627 29.936 8.66947C29.936 8.64997 29.9375 8.63272 29.9375 8.61247C29.9375 7.77222 29.778 7.18747 29.4625 6.87722C29.0508 6.46947 28.3243 6.47722 27.5545 6.48522C27.446 6.48522 27.3372 6.48747 27.2295 6.48747C27.0196 6.49246 26.8133 6.54332 26.625 6.63647C26.4368 6.72962 26.2713 6.86282 26.14 7.02672C25.0845 8.18847 24.6475 10.9052 24.835 12.8607V12.878C24.835 12.878 24.837 12.8902 24.837 12.8965C24.8313 13.6177 24.6624 14.3283 24.343 14.975C24.808 15.5281 25.2254 16.1194 25.591 16.7427C26.6455 15.1803 27.3127 13.3892 27.5375 11.5177L27.5462 11.452ZM19.7542 24.927C19.7162 24.9571 19.6855 24.9954 19.6644 25.0391C19.6433 25.0828 19.6324 25.1307 19.6325 25.1792C19.6321 25.2313 19.6441 25.2827 19.6673 25.3292C19.6905 25.3758 19.7244 25.4162 19.7662 25.4472C19.8026 25.4751 19.8446 25.4949 19.8893 25.5052C19.934 25.5155 19.9803 25.5161 20.0253 25.507C23.4405 24.6645 25.2335 21.67 25.5268 20.432C25.7213 19.6125 25.5918 18.7365 25.1312 17.754C25.1269 17.7448 25.1229 17.7353 25.1192 17.7255C24.7796 17.0367 24.3638 16.3882 23.8795 15.7922C23.1625 16.8324 22.2301 17.7062 21.1458 18.3545C21.6295 19.149 22.0128 19.8265 22.286 20.371L22.29 20.3792C22.292 20.3832 22.294 20.3872 22.2963 20.3912C23.0883 21.9722 21.456 23.5712 19.7542 24.9277V24.927ZM21.298 20.3682C21.0558 19.9161 20.7518 19.3896 20.386 18.789C18.717 19.661 16.522 20.3255 13.7068 20.5782C13.4978 20.5972 13.2963 20.6072 13.0925 20.62C13.1415 21.0153 13.1215 21.4162 13.0335 21.8047C13.0305 21.817 13.025 21.8317 13.0217 21.8442C13.3258 21.8552 13.6355 21.8625 13.9545 21.8625C16.815 21.8437 19.2788 21.3372 21.298 20.3682ZM7.808 25.2212C7.78841 25.2372 7.77277 25.2574 7.76228 25.2804C7.7518 25.3034 7.74676 25.3285 7.74756 25.3538C7.74836 25.379 7.75497 25.4037 7.76689 25.426C7.7788 25.4483 7.79569 25.4675 7.81625 25.4822C7.83383 25.4956 7.85411 25.5051 7.87568 25.5099C7.89726 25.5147 7.91963 25.5149 7.94125 25.5102C10.2162 24.9512 11.5728 23.0907 12.0163 22.079C12.0859 21.9264 12.1418 21.768 12.1833 21.6055C12.2551 21.294 12.2679 20.9717 12.221 20.6555C12.071 20.6585 11.921 20.6655 11.7738 20.6655C10.9323 20.6659 10.0917 20.6125 9.257 20.5057C9.45 20.8357 9.655 21.2022 9.82775 21.5475C9.85275 21.5975 9.8735 21.6462 9.89325 21.6975L9.89725 21.7067L9.8995 21.7117C10.363 22.9635 9.10375 24.1872 7.808 25.2212ZM8.64 21.191C8.45475 20.866 8.26975 20.5595 8.12575 20.3267C7.31554 20.173 6.51708 19.9627 5.73625 19.6975C6.58915 20.3928 7.57834 20.9016 8.64 21.191ZM13.6285 19.7067C16.508 19.448 18.6875 18.7532 20.2863 17.8622C20.296 17.8552 20.3042 17.847 20.3145 17.8405C20.3352 17.8283 20.3569 17.8177 20.3792 17.809C22.906 16.368 23.9435 14.434 23.9628 12.9917C23.8628 12.7595 23.7602 12.544 23.655 12.336C22.9397 14.9127 20.0363 18.075 13.653 18.703C13.0417 18.7632 12.453 18.7907 11.8895 18.7907C7.461 18.7907 4.4855 17.0907 3.12 16.0932C2.84025 16.3717 2.5575 16.6582 2.27225 16.957C3.43225 17.8057 7.389 20.2697 13.6285 19.7067Z" fill="white"/>
</svg>
