<svg width="24" height="22" viewBox="0 0 24 22" fill="none" xmlns="http://www.w3.org/2000/svg">
<path fill-rule="evenodd" clip-rule="evenodd" d="M2.26904 10.8649C2.18499 10.9442 2.07147 10.9929 1.94677 10.9929C1.79242 10.9929 1.65527 10.9182 1.56976 10.8032L0.109318 9.0628C-0.0569412 8.86432 -0.0305741 8.56842 0.168095 8.40216C0.36658 8.23608 0.662478 8.26227 0.828737 8.46094L1.54559 9.31531C1.82245 6.89209 2.92254 4.71881 4.55913 3.08221C6.46342 1.17792 9.09427 0 12 0C14.4913 0 16.7812 0.867187 18.5848 2.31647C20.423 3.7934 21.7545 5.8753 22.2778 8.26007C22.3324 8.51349 22.1714 8.76324 21.918 8.81799C21.6646 8.87274 21.4148 8.71179 21.3601 8.45837C20.8838 6.28729 19.6713 4.39178 17.9976 3.04669C16.3568 1.72852 14.2714 0.939514 12.0001 0.939514C9.35355 0.939514 6.9578 2.01215 5.22343 3.74652C3.72289 5.24707 2.71783 7.24329 2.47412 9.46838L3.40704 8.68561C3.60552 8.51935 3.90142 8.54571 4.06749 8.74438C4.23375 8.94287 4.20757 9.23877 4.0089 9.40503L2.26904 10.8649ZM8.66196 9.55756L8.15165 7.99512H10.5935C10.853 7.99512 11.0632 7.78473 11.0632 7.52527C11.0632 7.26581 10.853 7.05542 10.5935 7.05542H7.84476L7.37327 5.61182C7.309 5.4137 7.12516 5.28772 6.92741 5.28772L5.16759 5.28699C4.90813 5.28699 4.69792 5.49719 4.69792 5.75665C4.69792 6.01611 4.90813 6.2265 5.16759 6.2265H6.58757C7.42893 8.80316 8.27048 11.38 9.11185 13.9568C8.77805 14.0253 8.47977 14.191 8.24759 14.4232C7.93778 14.733 7.74607 15.1611 7.74607 15.6337C7.74607 16.1065 7.93778 16.5346 8.24759 16.8442C8.55741 17.1542 8.98551 17.3458 9.4581 17.3458C9.93088 17.3458 10.3588 17.1542 10.6688 16.8442C10.9786 16.5344 11.1701 16.1065 11.1701 15.6337C11.1701 15.3558 11.1038 15.0934 10.9863 14.8612H14.2481C14.13 15.0936 14.0634 15.356 14.0634 15.6337C14.0634 16.1065 14.2551 16.5344 14.5649 16.8442C14.8747 17.1542 15.3028 17.3458 15.7756 17.3458C16.2482 17.3458 16.6763 17.1542 16.9861 16.8442C17.2959 16.5344 17.4874 16.1065 17.4874 15.6337C17.4874 15.1624 17.2961 14.7352 16.9865 14.4254C16.6682 14.1068 16.2253 13.9217 15.7745 13.9217H10.0871L9.81644 13.0928L15.7758 13.092C15.9733 13.092 16.1572 12.9661 16.2216 12.7679L17.8765 7.69977C17.8981 7.64593 17.91 7.58697 17.91 7.52527C17.91 7.26581 17.6998 7.05542 17.4404 7.05542H14.3518C14.0923 7.05542 13.8821 7.26581 13.8821 7.52527C13.8821 7.78473 14.0923 7.99512 14.3518 7.99512H16.7936L16.2833 9.55756H8.66196ZM15.9766 10.4967H8.96848L9.50955 12.1533H15.4357L15.9766 10.4967ZM12.4726 7.05542C12.2131 7.05542 12.0029 7.26581 12.0029 7.52527C12.0029 7.78473 12.2131 7.99493 12.4726 7.99493C12.732 7.99493 12.9424 7.78473 12.9424 7.52527C12.9424 7.26581 12.732 7.05542 12.4726 7.05542ZM15.8078 14.8601C16.0083 14.8682 16.1894 14.9529 16.3221 15.0861C16.4617 15.2256 16.5481 15.4193 16.5481 15.6337C16.5481 15.8472 16.4615 16.0404 16.3218 16.1801C16.1821 16.3198 15.9889 16.4062 15.7756 16.4062C15.5623 16.4062 15.3691 16.3198 15.2294 16.1801C15.0895 16.0402 15.0031 15.847 15.0031 15.6337C15.0031 15.4193 15.0895 15.2256 15.229 15.0861C15.357 14.9579 15.5299 14.8744 15.7217 14.8612C15.7547 14.8585 15.7741 14.8585 15.8078 14.8601ZM10.0045 15.0875C10.1442 15.2272 10.2306 15.4204 10.2306 15.6337C10.2306 15.8472 10.1442 16.0402 10.0045 16.1801C9.86478 16.3198 9.6716 16.4062 9.45828 16.4062C9.24478 16.4062 9.05161 16.3198 8.91208 16.1799C8.77219 16.0402 8.68576 15.847 8.68576 15.6337C8.68576 15.4204 8.77219 15.2272 8.91208 15.0875C9.05161 14.9476 9.24497 14.8612 9.45828 14.8612C9.6716 14.8612 9.86478 14.9476 10.0045 15.0875ZM20.5931 12.3605L21.5258 11.5778C21.2823 13.8029 20.277 15.7991 18.7765 17.2996C17.0423 19.0338 14.6464 20.1064 12 20.1064C9.72873 20.1064 7.64316 19.3176 6.00236 17.9993C4.3286 16.6545 3.11608 14.7588 2.63983 12.5878C2.58508 12.3343 2.33532 12.1734 2.08209 12.2281C1.82867 12.2827 1.66754 12.5327 1.72229 12.7859C2.24542 15.1708 3.57696 17.2527 5.41515 18.7297C7.21891 20.179 9.50882 21.0461 12.0001 21.0461C14.9058 21.0461 17.5365 19.8682 19.4408 17.9639C21.0774 16.3273 22.1777 14.1541 22.4543 11.7308L23.1714 12.5852C23.3374 12.7837 23.6333 12.8101 23.832 12.6438C24.0305 12.4777 24.0569 12.1818 23.8908 11.9833L22.4303 10.2429C22.3446 10.1277 22.2077 10.0532 22.0533 10.0532C21.9285 10.0532 21.8151 10.1019 21.7311 10.1812L19.9912 11.6411C19.7925 11.8074 19.7662 12.1033 19.9324 12.3019C20.0987 12.5004 20.3944 12.5268 20.5931 12.3605Z" fill="white"/>
</svg>
