<svg width="32" height="32" viewBox="0 0 32 32" fill="none" xmlns="http://www.w3.org/2000/svg">
<path d="M26.4218 14.6951L28.731 12.6604L30.2654 12.9874C30.64 13.0673 31.0237 12.9965 31.3453 12.7879C31.6669 12.5793 31.8881 12.2579 31.968 11.8832C32.0479 11.5083 31.9771 11.1247 31.7685 10.8031C31.5599 10.4815 31.2386 10.2604 30.8637 10.1805L28.6232 9.70292C28.1811 9.60856 27.7144 9.73074 27.3753 10.0297L24.8009 12.2982L21.6333 13.005L24.7905 10.151C24.9563 10.0011 25.0865 9.81177 25.1669 9.6034L26.987 4.8903L29.5332 2.47555C30.1073 1.9311 30.1314 1.021 29.587 0.446866C29.0425 -0.127273 28.1325 -0.151359 27.5582 0.393093L24.7771 3.03052C24.6236 3.17622 24.5022 3.35739 24.4261 3.55462L22.6124 8.25086L20.132 10.4931L20.8542 8.79357C20.9811 8.49495 21.0553 8.17929 21.0747 7.8554C21.1684 6.29207 20.4647 4.81362 19.1923 3.90054L18.4935 3.39903C18.2804 3.24605 18.0029 3.24325 17.7866 3.39156C17.5703 3.54 17.4732 3.80002 17.5393 4.05408L18.376 7.26515C18.411 7.39964 18.3958 7.54204 18.3332 7.66614L17.9935 8.33905C17.9873 8.30395 17.981 8.26885 17.9736 8.23387L17.7207 7.0429C17.6695 6.80142 17.4798 6.61502 17.2374 6.56809C16.9953 6.52116 16.7495 6.62317 16.6118 6.82793L15.9998 7.73784L15.3878 6.82787C15.2501 6.62304 15.0044 6.52104 14.7622 6.56803C14.5199 6.61495 14.3302 6.80135 14.2789 7.04277L14.026 8.23381C14.0186 8.26878 14.0123 8.30395 14.0062 8.33905L13.6664 7.66608C13.6038 7.54198 13.5886 7.39958 13.6237 7.26508L14.4604 4.05395C14.5265 3.80002 14.4295 3.54006 14.2132 3.39156C13.9968 3.24312 13.7193 3.24599 13.5062 3.39897L12.8074 3.90047C11.535 4.81356 10.8313 6.29207 10.9249 7.85534C10.9444 8.17922 11.0185 8.49483 11.1454 8.79351L11.8676 10.4931L9.38724 8.25086L7.57365 3.55468C7.49753 3.35752 7.37617 3.17622 7.22244 3.0304L4.44174 0.393031C3.86748 -0.151297 2.95745 -0.127211 2.41306 0.446866C1.8686 1.021 1.89269 1.93104 2.46677 2.47555L5.01302 4.8903L5.54695 6.27296C5.63987 6.51344 5.91011 6.633 6.15059 6.54021C6.39108 6.44729 6.51076 6.17711 6.41784 5.93657L5.98149 4.80671L6.8385 4.24197L8.40719 8.30407L7.51458 8.7767L7.13444 7.79236C7.04152 7.55181 6.77128 7.43219 6.53086 7.52505C6.29038 7.61791 6.17069 7.88814 6.26355 8.12862L6.83308 9.60334C6.91356 9.81177 7.04376 10.0011 7.2095 10.1508L10.3667 13.0049L7.19904 12.2981L4.62478 10.0297C4.28553 9.73061 3.819 9.60825 3.37686 9.70279L1.13632 10.1804C0.761465 10.2603 0.440072 10.4814 0.231515 10.803C0.022958 11.1246 -0.0478681 11.5082 0.0319824 11.883C0.111895 12.2579 0.333024 12.5793 0.654666 12.7878C0.976246 12.9964 1.35975 13.0672 1.73461 12.9874L3.269 12.6603L5.57813 14.6951C5.75906 14.8545 5.979 14.9664 6.21432 15.019L9.22281 15.6903L4.83813 17.5471C4.54089 17.6729 4.29212 17.8984 4.13759 18.1819L2.23599 21.6724L0.954712 22.581C0.642032 22.8027 0.434409 23.1329 0.370055 23.5108C0.305702 23.8886 0.392398 24.2689 0.61415 24.5816C0.882766 24.9604 1.32073 25.1866 1.78546 25.1866H1.78564C2.08395 25.1866 2.37067 25.0952 2.61477 24.9221L4.16721 23.8213C4.34465 23.6954 4.4934 23.528 4.59727 23.3372L6.41834 19.9945L10.7317 18.168L5.94633 22.7108C5.66221 22.9804 5.49928 23.3598 5.49928 23.7515V27.7177L4.66094 29.7536C4.515 30.108 4.5158 30.4981 4.66324 30.8519C4.81068 31.2057 5.08708 31.481 5.44146 31.6269C5.61603 31.6988 5.79976 31.7353 5.9874 31.7353H5.98753C6.57144 31.7353 7.09243 31.3864 7.31474 30.8464L8.26118 28.548C8.33288 28.3738 8.36929 28.1901 8.36929 28.0017V24.3681L13.3007 19.6866C13.3326 19.7186 13.3658 19.7494 13.3988 19.7802C12.3306 20.8083 11.6832 22.4377 11.6832 24.1634C11.6832 24.8787 11.7897 25.5752 11.9998 26.2336C12.0631 26.432 12.2466 26.5586 12.4443 26.5586C12.4913 26.5586 12.5391 26.5515 12.5863 26.5364C12.8319 26.4581 12.9675 26.1954 12.8891 25.9499C12.7084 25.3833 12.6168 24.7823 12.6168 24.1634C12.6168 22.6168 13.2079 21.1755 14.1726 20.3363C14.7003 20.6213 15.3037 20.7834 15.9443 20.7834H16.0556C16.6962 20.7834 17.2997 20.6213 17.8273 20.3363C18.792 21.1756 19.3831 22.6168 19.3831 24.1634C19.3831 26.6755 17.8654 28.7193 16 28.7193C15.1922 28.7193 14.408 28.3244 13.7921 27.6073C13.6242 27.4117 13.3295 27.3894 13.1339 27.5573C12.9384 27.7253 12.916 28.02 13.0839 28.2155C13.8801 29.1424 14.9157 29.6528 16 29.6528C18.3802 29.6528 20.3167 27.1902 20.3167 24.1633C20.3167 22.4376 19.6692 20.8082 18.601 19.7801C18.6341 19.7493 18.6672 19.7185 18.6991 19.6866L23.6306 24.368V28.0017C23.6306 28.1899 23.6669 28.3737 23.7387 28.548L24.685 30.8463C24.9073 31.3864 25.4283 31.7353 26.0123 31.7353C26.2001 31.7353 26.3837 31.6989 26.5583 31.6269C26.9127 31.481 27.1892 31.2058 27.3366 30.8519C27.484 30.4981 27.4848 30.108 27.3388 29.7536L26.5005 27.7177V23.7515C26.5005 23.3598 26.3376 22.9804 26.0534 22.7108L21.268 18.168L25.5814 19.9946L27.4023 23.337C27.5062 23.528 27.655 23.6955 27.8325 23.8214L29.385 24.9222C29.6291 25.0952 29.9157 25.1867 30.2139 25.1867H30.2141C30.6789 25.1867 31.1168 24.9605 31.3856 24.5817C31.6073 24.269 31.694 23.8887 31.6296 23.5108C31.5653 23.1329 31.3577 22.8027 31.0449 22.5811L29.7636 21.6725L27.8621 18.1819C27.7076 17.8984 27.4588 17.6729 27.1615 17.5471L25.9918 17.0517C25.7545 16.9513 25.4805 17.0621 25.38 17.2995C25.2795 17.5368 25.3904 17.8108 25.6277 17.9113L26.2861 18.1902L25.7339 19.0454L22.8951 17.8433L23.3224 16.9351L23.788 17.1323C23.8474 17.1574 23.9091 17.1694 23.9699 17.1694C24.1517 17.1694 24.3245 17.0625 24.3999 16.8845C24.5004 16.6472 24.3895 16.3732 24.1521 16.2727L22.7768 15.6903L25.7855 15.019C26.021 14.9665 26.241 14.8545 26.4218 14.6951ZM3.09045 1.08928C3.28064 0.888688 3.59874 0.880286 3.79939 1.07048L6.32299 3.46376L5.46299 4.03043L3.10924 1.79816C2.90865 1.6079 2.90019 1.28987 3.09045 1.08928ZM30.9853 11.3111C31.0581 11.4235 31.0828 11.5575 31.055 11.6885C31.0271 11.8194 30.9498 11.9317 30.8374 12.0046C30.7249 12.0775 30.5909 12.1023 30.46 12.0743L28.9243 11.747L28.6663 10.6665L30.6691 11.0934C30.8 11.1215 30.9124 11.1987 30.9853 11.3111ZM27.7687 10.9273L28.0325 12.0316L25.9335 13.8812L25.5667 12.8677L27.7687 10.9273ZM24.7204 13.2727L25.0645 14.2235L19.7962 15.399V14.6657L20.2284 14.275L24.7204 13.2727ZM19.2744 18.9453C19.456 18.6393 19.5953 18.3054 19.684 17.9515L22.1453 20.2879L21.4643 21.0242L19.2744 18.9453ZM18.5926 9.22425L19.4532 9.70373L18.8715 11.0728C18.6265 10.7926 18.3409 10.549 18.0233 10.3517L18.5926 9.22425ZM28.2006 1.07055C28.4014 0.880286 28.7194 0.888688 28.9096 1.08928C29.0998 1.28993 29.0914 1.6079 28.8908 1.79822L26.537 4.03049L25.6771 3.46382L28.2006 1.07055ZM25.1615 4.24209L26.0185 4.80684L24.4854 8.77676L23.5927 8.30407L25.1615 4.24209ZM23.0784 9.08814L24.0216 9.58753L19.7931 13.41C19.7801 13.0065 19.7039 12.6189 19.5726 12.2573L23.0784 9.08814ZM20.143 7.79958C20.13 8.01666 20.0802 8.22827 19.9952 8.42848L19.8204 8.83969L19.0137 8.39021L19.1668 8.08693C19.3319 7.75981 19.372 7.38433 19.2796 7.02976L18.665 4.6711C19.6647 5.39716 20.217 6.56504 20.143 7.79958ZM14.9395 8.42774L15.0353 7.97627L15.4235 8.5534C15.5528 8.74565 15.7683 8.86047 16 8.86047H16.0001C16.2318 8.86047 16.4473 8.74571 16.5766 8.5534L16.9648 7.97627L17.0606 8.42774C17.1653 8.92035 17.0897 9.43399 16.8485 9.87581C16.5928 9.82042 16.3278 9.79049 16.0557 9.79049H15.9444C15.6724 9.79049 15.4073 9.82042 15.1517 9.87581C14.9104 9.43405 14.8349 8.92047 14.9395 8.42774ZM10.5358 21.0243L9.85483 20.2879L12.3161 17.9515C12.4048 18.3054 12.5441 18.6393 12.7257 18.9454L10.5358 21.0243ZM13.1286 11.0728L12.5468 9.70373L13.4075 9.22425L13.9767 10.3518C13.6591 10.549 13.3735 10.7926 13.1286 11.0728ZM13.3351 4.6711L12.7205 7.02964C12.6281 7.38427 12.6681 7.75974 12.8333 8.0868L12.9864 8.39008L12.1796 8.83956L12.0048 8.42836C11.9197 8.22814 11.87 8.01654 11.857 7.79951C11.7831 6.56504 12.3353 5.39716 13.3351 4.6711ZM12.4274 12.2574C12.296 12.619 12.2198 13.0067 12.2069 13.41L7.97844 9.58753L8.92152 9.08814L12.4274 12.2574ZM12.2039 14.6657V15.399L6.93553 14.2235L7.27964 13.2727L11.7717 14.275L12.2039 14.6657ZM1.54005 12.0744C1.40911 12.1023 1.27511 12.0775 1.16271 12.0046C1.05031 11.9318 0.973072 11.8195 0.945128 11.6885C0.917183 11.5575 0.941953 11.4235 1.01483 11.3111C1.08771 11.1987 1.19999 11.1214 1.331 11.0935L3.33379 10.6665L3.07576 11.747L1.54005 12.0744ZM3.96762 12.0316L4.23132 10.9272L6.43333 12.8677L6.06657 13.8812L3.96762 12.0316ZM12.2039 16.3555V16.531L9.96486 17.4791L9.53754 16.5709L10.7908 16.0402L12.2039 16.3555ZM6.26579 19.0455L5.71356 18.1903L8.67724 16.9353L9.10456 17.8434L6.26579 19.0455ZM2.07498 24.1607C1.98959 24.2213 1.88964 24.2532 1.78577 24.2532H1.7857C1.62295 24.2532 1.46973 24.1741 1.37581 24.0417C1.29832 23.9325 1.26808 23.7995 1.29054 23.6675C1.31301 23.5355 1.38558 23.4201 1.49487 23.3426L2.59491 22.5626L3.46443 23.1755L2.07498 24.1607ZM4.02824 22.4307L3.20303 21.8491L4.92452 18.6892L5.54396 19.6486L4.02824 22.4307ZM7.43579 27.4865L6.4329 27.3873V24.107L7.43579 24.5604V27.4865ZM6.45163 30.4911C6.3739 30.6799 6.19179 30.8018 5.98765 30.8018H5.98759C5.92243 30.8018 5.85832 30.789 5.79702 30.7638C5.67317 30.7129 5.57658 30.6166 5.52504 30.493C5.47351 30.3694 5.47326 30.233 5.52423 30.1091L6.26554 28.3088L7.30771 28.4119L6.45163 30.4911ZM7.74343 23.675L6.75672 23.2289L9.17769 20.9306L9.85863 21.667L7.74343 23.675ZM15.9444 19.8498C14.3966 19.8498 13.1374 18.5906 13.1374 17.0428V13.531C13.1374 11.9832 14.3966 10.724 15.9444 10.724H16.0557C17.6034 10.724 18.8626 11.9832 18.8626 13.531V17.0428C18.8626 18.5906 17.6034 19.8498 16.0557 19.8498H15.9444ZM22.1414 21.667L22.8223 20.9307L25.2432 23.2289L24.2565 23.675L22.1414 21.667ZM25.5671 27.3873L24.5642 27.4865V24.5605L25.5671 24.107V27.3873ZM26.475 30.493C26.4235 30.6166 26.3269 30.7128 26.203 30.7638C26.1418 30.789 26.0776 30.8018 26.0124 30.8018C25.8083 30.8018 25.6261 30.6799 25.5484 30.491L24.6923 28.4119L25.7344 28.3089L26.4757 30.1092C26.5268 30.2331 26.5265 30.3694 26.475 30.493ZM30.5053 23.3426C30.6146 23.4201 30.6871 23.5355 30.7095 23.6675C30.732 23.7995 30.7018 23.9324 30.6243 24.0416C30.5304 24.1741 30.3771 24.2532 30.2143 24.2532C30.1105 24.2532 30.0105 24.2212 29.9251 24.1607L28.5357 23.1754L29.4052 22.5626L30.5053 23.3426ZM28.7971 21.8491L27.9718 22.4307L26.4562 19.6486L27.0756 18.6892L28.7971 21.8491ZM22.4625 16.5709L22.0352 17.4791L19.7961 16.5309V16.3555L21.2091 16.0402L22.4625 16.5709Z" fill="#282828"/>
</svg>
