<?xml version="1.0" encoding="utf-8"?><svg width="32" height="32" xmlns="http://www.w3.org/2000/svg" viewBox="0 0 32 32"><path d="M26.315 11.647h-.002a6.524 6.524 0 00-2.062-.683c-1.573-.22-2.79.336-3.522 1.609-.934 1.624-.647 3.617-.284 6.14.251 1.74.535 3.713.535 6.097 0 .218-.017.432-.049.636a.469.469 0 00.926.147c.04-.252.06-.515.06-.783 0-2.45-.289-4.459-.544-6.23-.248-1.726-.448-3.113-.268-4.253-.007 1.031.281 2.326.62 3.852.424 1.902.95 4.268 1.05 6.858.062 1.578-.576 3.15-1.748 4.313-1.187 1.177-2.742 1.784-4.38 1.706-1.558-.073-3.01-.762-4.09-1.94a6.322 6.322 0 01-1.662-4.281v-9.837c0-.631.235-1.237.66-1.704.544-.596.843-1.423.843-2.327v-.28c0-.925-.405-1.82-1.14-2.52-.492-.468-.775-1.077-.846-1.812a1.472 1.472 0 001.986-1.378v-.5c0-.755-.571-1.378-1.304-1.461.61-1.27 1.495-2.079 2.338-2.079.841 0 1.729.81 2.338 2.079a1.473 1.473 0 00-1.303 1.46v.502a1.472 1.472 0 001.985 1.377c-.07.735-.353 1.344-.845 1.812-.735.7-1.14 1.595-1.14 2.52v.28c0 .904.299 1.73.842 2.327.426.467.66 1.073.66 1.704 0 1.734-.294 3.506-.579 5.22-.282 1.699-.573 3.455-.573 5.157 0 .952.315 1.845.888 2.514a3.116 3.116 0 002.424 1.105 3.959 3.959 0 002.595-1.137.469.469 0 00-.66-.666 3.021 3.021 0 01-1.97.866c-1.52-.007-2.34-1.385-2.34-2.682 0-.785.064-1.574.162-2.375l1.646-.83-.4 1.2c-.153.458-.071.962.219 1.348l1.188 1.584a.468.468 0 10.75-.563l-.498-.664.88-.194a.469.469 0 00-.2-.915l-1.298.285-.072-.096a.533.533 0 01-.08-.488l.76-2.279a1.556 1.556 0 00-.296-1.515 1.556 1.556 0 00-1.45-.528l-.597.1c.235-1.46.44-2.954.44-4.447 0-.386-.065-.765-.188-1.123l1.2-.278c.56-.13.996-.58 1.109-1.144l.466-2.329 1.638-.708a.469.469 0 10-.371-.86l-1.044.45.186-.93a.469.469 0 10-.92-.184l-.874 4.377a.534.534 0 01-.403.415l-1.424.33a3.478 3.478 0 00-.28-.351c-.386-.424-.599-1.026-.599-1.696v-.28c0-.665.302-1.32.85-1.841.755-.72 1.154-1.71 1.154-2.866V4.477c0-.421-.178-.801-.463-1.07-.327-.923-.79-1.726-1.343-2.323C14.944.374 14.194 0 13.432 0c-1.408 0-2.779 1.334-3.513 3.407a1.467 1.467 0 00-.463 1.07V5.98c0 1.155.4 2.146 1.155 2.865.548.523.85 1.176.85 1.842v.28c0 .67-.213 1.272-.599 1.696a3.5 3.5 0 00-.28.351l-1.425-.33a.534.534 0 01-.402-.415L7.88 7.892a.469.469 0 00-.92.184l.187.93-1.044-.45a.469.469 0 10-.372.86l1.64.708.465 2.329a1.474 1.474 0 001.11 1.144l1.198.278a3.467 3.467 0 00-.187 1.123v4.52l-1.003-.173a1.557 1.557 0 00-1.45.528c-.36.422-.47.989-.295 1.515l.759 2.278a.533.533 0 01-.08.49l-.071.095-1.298-.285a.469.469 0 10-.202.915l.882.194-.498.664a.469.469 0 00.75.563l1.188-1.584c.29-.386.37-.89.218-1.348l-.402-1.207 1.502.747v1.924c0 1.826.678 3.572 1.91 4.915 1.246 1.362 2.928 2.158 4.736 2.243.108.005.215.008.323.008 1.783 0 3.463-.698 4.76-1.985 1.36-1.347 2.098-3.175 2.026-5.015-.103-2.674-.64-5.086-1.071-7.024-.438-1.968-.784-3.523-.496-4.421.242-.754.637-1.242 1.174-1.453.957-.375 2.149.166 2.457.32l.077.04a.469.469 0 00.462-.815zm-10.008 8.775l.912-.152a.618.618 0 01.583.212c.11.128.16.282.152.441l-1.88.948c.072-.477.152-.959.233-1.45zm.164-15.945v.5a.534.534 0 01-1.067 0v-.5a.534.534 0 011.067 0zm-6.077 0a.534.534 0 011.067 0v.5a.534.534 0 01-1.067 0v-.5zm-.437 17.386l-1.891-.941a.617.617 0 01.15-.44.616.616 0 01.582-.212l1.16.2v1.393z"/></svg>