<?xml version="1.0" encoding="utf-8"?><svg width="32" height="32" xmlns="http://www.w3.org/2000/svg" viewBox="0 0 32 32"><path d="M15.178 24.188a.63.63 0 11.001-1.26.63.63 0 01-.001 1.26zm16.192-3.78H18.478c.07-.198.107-.41.106-.627v-2.507a7.996 7.996 0 002.825-.845 5.273 5.273 0 002.603-3.142c.413-1.351.578-2.742.495-4.146.659.264 1.677.55 2.905.497a.944.944 0 00.175.898.915.915 0 001.017.29 4.743 4.743 0 003.235-4.713 4.65 4.65 0 00-.8-2.404 1.26 1.26 0 00-.316-1.462A8.916 8.916 0 0024.706 0a8.92 8.92 0 00-6.01 2.402S8.04 12.378 7.569 12.884a31.184 31.184 0 00-6.167 9.712.63.63 0 00.638.862c.188-.006.376-.034.564-.053L.494 25.98a2.177 2.177 0 00.03 2.8c.75.873 1.903.925 2.69.507l-.77 1.839c-.232.627.404 1.033.856.81a12.797 12.797 0 005.76-5.578l1.143-2.17h2.14a.63.63 0 000-1.26h-1.476l.664-1.26h19.21v1.26H18.011a.63.63 0 00-.628.674.645.645 0 00.65.586h2.473a9.436 9.436 0 00.123 3.777 4.96 4.96 0 003.442 3.597c1 .29 2.795.644 4.923.284a.63.63 0 00.521-.542c.208-1.643.043-3.34-.479-4.908a4.963 4.963 0 00-1.489-2.208h3.822a.63.63 0 00.63-.63v-2.52a.63.63 0 00-.63-.63zM27.808 8.34a5.77 5.77 0 01-2.663-.304l2.137-1.49c.384.523.565 1.16.526 1.794zm2.772-2.168a3.483 3.483 0 01-1.672 3.135 4.002 4.002 0 00-.593-3.481l1.786-1.246c.289.483.453 1.024.48 1.592zm-12.946.177a.63.63 0 00-.842-.29c-.123.06-.244.122-.366.183l3.13-2.918a7.647 7.647 0 0110.334-.132l-6.47 4.511a.63.63 0 00-.263.607 10.517 10.517 0 01-.35 4.61 4.007 4.007 0 01-1.974 2.389 6.763 6.763 0 01-.999.417 8.811 8.811 0 001.927-4.756c.048-.534.082-1.078.102-1.617a.63.63 0 00-1.26-.046c-.015.43-.04.863-.075 1.292a7.552 7.552 0 01-5.625 1.618 30.129 30.129 0 01-4.038-.766 30.17 30.17 0 016.478-4.26.63.63 0 00.291-.842zm-7.878 6.103c1.632.473 3.311.815 4.997 1.016.93.111 1.864.071 2.767-.11-.613.301-1.27.52-1.952.645a29.974 29.974 0 01-7.69.407 29.997 29.997 0 011.878-1.958zm-6.988 15.62a.92.92 0 01-1.3-1.293l2.962-3.616c.49-.08.978-.17 1.463-.272l-1.665 3.975-1.46 1.206zm5.178-2.301a11.54 11.54 0 01-3.612 4.1L7.41 22.53c.909-.24 1.805-.521 2.687-.842L7.946 25.77zm8.747-5.362h-3.585a31.255 31.255 0 004.215-2.486v1.856a.63.63 0 01-.63.63zm.873-4.223a29.892 29.892 0 01-14.588 5.91 30.035 30.035 0 013.92-6.508c3.794.42 7.082-.013 8.897-.346a8.804 8.804 0 004.05-1.903 7.541 7.541 0 01-2.279 2.847zm10.276 10.608a9.93 9.93 0 01.473 3.877 9.929 9.929 0 01-3.893-.319 3.697 3.697 0 01-2.567-2.681 8.159 8.159 0 01-.198-2.525l4.064 3.906a.63.63 0 10.873-.908l-4.055-3.898a8.094 8.094 0 012.522.089 3.697 3.697 0 012.78 2.459zm-2.33-23.33a.63.63 0 101.26 0 .63.63 0 00-1.26 0z"/></svg>