<?xml version="1.0" encoding="utf-8"?><svg width="30" height="30" xmlns="http://www.w3.org/2000/svg" viewBox="0 0 30 30"><path d="M29.5 1.5H.5A.5.5 0 000 2v4a.5.5 0 00.5.5H1V24a2.503 2.503 0 002.5 2.5H4V28a.5.5 0 00.5.5h6a.5.5 0 00.5-.5v-1.5h8V28a.5.5 0 00.5.5h6a.5.5 0 00.5-.5v-1.5h.5A2.503 2.503 0 0029 24V6.5h.5A.5.5 0 0030 6V2a.5.5 0 00-.5-.5zM10 27.5H5v-1h5v1zm15 0h-5v-1h5v1zm3-3.5a1.5 1.5 0 01-1.5 1.5h-23A1.5 1.5 0 012 24v-3.714c.423-.175 1.735-.5 4.892.2C11.412 21.492 17.77 21.02 18 21a33.184 33.184 0 005.6-.51 18.966 18.966 0 003.255-1.003c.443-.171.827-.32 1.147-.405L28 24zm0-5.942a9.883 9.883 0 00-1.507.495c-1 .41-2.035.73-3.093.957-.618.123-1.271.216-1.9.285V18.5h2A3.504 3.504 0 0027 15a.5.5 0 00-.5-.5h-2a3.5 3.5 0 00-3 1.706V14h2a3.504 3.504 0 003.5-3.5.5.5 0 00-.5-.5h-2a3.5 3.5 0 00-3 1.707V11a.5.5 0 00-1 0v.707a3.5 3.5 0 00-3-1.707h-2a.5.5 0 00-.5.5 3.504 3.504 0 003.5 3.5h2v2.206a3.5 3.5 0 00-3-1.706h-2a.5.5 0 00-.5.5 3.504 3.504 0 003.5 3.5h2v1.388C19.103 20 18.002 20 17.961 20c-.06.004-5.64.42-9.942-.313l.835-.835a.5.5 0 00-.708-.707l-.646.648V17a.5.5 0 00-1 0v1.5l-.6-.8a.5.5 0 10-.8.6l.724.965c-1.959-.32-3.138-.22-3.824-.034V6.5h26v11.558zm-5.95-.558a2.504 2.504 0 012.45-2h1.45a2.504 2.504 0 01-2.45 2h-1.45zm0-4.5a2.504 2.504 0 012.45-2h1.45a2.504 2.504 0 01-2.45 2h-1.45zm-2.1 0H18.5a2.504 2.504 0 01-2.45-2h1.45a2.504 2.504 0 012.45 2zm0 4.5H18.5a2.504 2.504 0 01-2.45-2h1.45a2.504 2.504 0 012.45 2zM29 3.5h-5.5a.5.5 0 000 1H29v1H1v-1h17.5a.5.5 0 000-1H1v-1h28v1z"/><path d="M20.5 4.5h1a.5.5 0 000-1h-1a.5.5 0 000 1zM5.5 21.5H5a.5.5 0 000 1h.5a.5.5 0 000-1zM8.5 23H8a.5.5 0 000 1h.5a.5.5 0 000-1zM13 22h-.5a.5.5 0 000 1h.5a.5.5 0 000-1zM17 23.5h-.5a.5.5 0 000 1h.5a.5.5 0 000-1zM20.5 22H20a.5.5 0 000 1h.5a.5.5 0 000-1zM24.5 23H24a.5.5 0 000 1h.5a.5.5 0 000-1zM26 21h-.5a.5.5 0 000 1h.5a.5.5 0 000-1zM4 13a.498.498 0 00.312-.11l5-4a.5.5 0 10-.625-.78l-5 4A.5.5 0 004 13zM8.13 13.836a.5.5 0 00.707.034l5.5-5a.5.5 0 00-.673-.74l-5.5 5a.5.5 0 00-.034.706zM13.175 13.12l-3.5 3a.5.5 0 10.65.76l3.5-3a.5.5 0 10-.65-.76z"/></svg>