<?xml version="1.0" encoding="utf-8"?><svg width="30" height="26" xmlns="http://www.w3.org/2000/svg" viewBox="0 0 30 26"><path d="M23.202 4.366a.59.59 0 010-1.18h.295a.59.59 0 010 1.18h-.295zm5.957 2.54l-3.03 3.104a8.398 8.398 0 01-3.03 1.969 1.75 1.75 0 00-.951.84l-.246 2.926c-.028.334.034.66.18.945a10.993 10.993 0 011.191 5.54 5.59 5.59 0 013.166 1.456c.803.744.27 2.049-.8 2.049h-4.681a2.344 2.344 0 01-2.302-1.835 22.681 22.681 0 01-.53-6.1c-.672.483-1.39.895-2.148 1.231.274 1.035.083 2.467-1.17 3.358a5.653 5.653 0 012.338 1.297c.78.714.294 2.049-.8 2.049H9.92c-2.926 0-5.807-.749-8.329-2.164a3.082 3.082 0 01-1.59-2.677 3.087 3.087 0 011.105-2.424 3.28 3.28 0 01.074-2.303c.158-.383.33-.768.51-1.147.337-.708 1.403-.202 1.066.506-.171.36-.334.729-.485 1.093a2.128 2.128 0 00-.12 1.203c1.708-.903 4.298-1.793 7.105-1.706l5.12-2.988a21.851 21.851 0 004.498-3.483l2.052-2.068a8.803 8.803 0 012.999-1.987L28.5 3.761l-.163-.448a1.776 1.776 0 00-1.45-1.15 23.802 23.802 0 00-2.133-.15.585.585 0 01-.475-.26c-.487-.744-1.698-.82-2.21.089a.591.591 0 01-.452.297c-6.325.672-12.21 3.946-16.142 8.987-.484.62-1.415-.105-.931-.726C9.16 4.481 15.749 1.596 21.212.996c.958-1.29 2.831-1.312 3.853-.155a21.82 21.82 0 011.958.148c1.583.203 2.236 1.406 2.423 1.92l.36.985a2.906 2.906 0 01-.647 3.013zM13.669 18.11a13.876 13.876 0 00-4.646-.824c-2.396 0-4.776.632-6.89 1.899a1.932 1.932 0 00.036 3.357 15.926 15.926 0 007.751 2.013h6.426l-.002-.002a4.421 4.421 0 00-3.01-1.179H10.06c-3.087 0-5.383-.834-7.037-1.714a.59.59 0 11.554-1.042 13.457 13.457 0 006.268 1.58c1.401 0 2.604-.166 3.67-.49 1.844-.558 1.81-3.008.152-3.598zm1.773-.132a10.845 10.845 0 002.742-1.725v-4.368a23.027 23.027 0 01-3.212 2.263l-3.671 2.143c2.102.387 3.39.745 4.141 1.687zm5.587-.75a2.932 2.932 0 01-.303-1.581l.41-4.882a.584.584 0 00-.59-.641c-.64 0-1.181.54-1.181 1.18l-.002 5.706a21.516 21.516 0 00.445 6.631c.119.53.603.914 1.15.914h4.68v-.002a4.41 4.41 0 00-3-1.178.591.591 0 01-.586-.652 9.785 9.785 0 00-1.023-5.495zM28.314 6.08a1.7 1.7 0 00.486-1.168l-4.437 1.773a7.63 7.63 0 00-2.599 1.722l-.63.635c.73.268 1.304.984 1.162 2.008.126-.068.257-.128.393-.179a7.103 7.103 0 002.595-1.687l3.03-3.104zM3.492 13.532a.59.59 0 100-1.18.59.59 0 000 1.18z"/></svg>