<?xml version="1.0" encoding="utf-8"?><svg width="32" height="32" xmlns="http://www.w3.org/2000/svg" viewBox="0 0 32 32"><path d="M21.5 22v-1.5h.5a.5.5 0 00.5-.5v-2.5a.5.5 0 00-.5-.5h-.5V4.5A3.504 3.504 0 0018 1h-4a3.504 3.504 0 00-3.5 3.5V17H10a.5.5 0 00-.5.5V20a.5.5 0 00.5.5h.5V22a3.05 3.05 0 001.218 2.226 1.486 1.486 0 00-.328 2.274 1.488 1.488 0 00.88 2.477L14.293 31h3.414l2.023-2.023a1.489 1.489 0 00.88-2.477 1.485 1.485 0 00-.328-2.274A3.05 3.05 0 0021.5 22zm-10-17.5A2.503 2.503 0 0114 2h4a2.503 2.503 0 012.5 2.5V17h-1V4.5a1.5 1.5 0 10-3 0V17h-1V4.5a1.5 1.5 0 10-3 0V17h-1V4.5zm6 10.5v-1h1v1h-1zm1 1v1h-1v-1h1zm-1-3v-1h1v1h-1zm0-2v-1h1v1h-1zm0-2V8h1v1h-1zm0-2V6h1v1h-1zm0-2v-.5a.5.5 0 011 0V5h-1zm-4 10v-1h1v1h-1zm1 1v1h-1v-1h1zm-1-3v-1h1v1h-1zm0-2v-1h1v1h-1zm0-2V8h1v1h-1zm0-2V6h1v1h-1zm0-2v-.5a.5.5 0 011 0V5h-1zm-3 14.5V18h11v1.5h-11zM17.293 30h-2.586l-1-1h4.586l-1 1zm2.207-2h-7a.5.5 0 010-1h7a.5.5 0 010 1zm0-2h-7a.5.5 0 010-1h7a.5.5 0 010 1zm1-4c0 .909-1.092 1.704-1.625 2h-5.75c-.36-.207-1.625-1-1.625-2v-1.5h1v2h1v-2h1V23h1v-2.5h1V23h1v-2.5h1v2h1v-2h1V22z"/></svg>