<?xml version="1.0" encoding="utf-8"?><svg width="29" height="29" xmlns="http://www.w3.org/2000/svg" viewBox="0 0 29 29"><path d="M17.275 14.5a2.775 2.775 0 11-5.55 0 2.775 2.775 0 015.55 0z"/><path d="M20.99 9.59a2.58 2.58 0 00-.622-.958 2.578 2.578 0 00-.958-.623c-.293-.114-.734-.25-1.546-.286-.878-.04-1.14-.049-3.364-.049-2.223 0-2.487.009-3.365.049-.812.037-1.252.172-1.546.286a2.576 2.576 0 00-.957.623c-.276.269-.49.596-.623.958-.114.293-.25.734-.287 1.546-.04.878-.048 1.14-.048 3.364 0 2.223.008 2.487.048 3.365.037.812.173 1.252.287 1.546.134.361.346.688.623.957.268.277.595.49.957.623.294.114.734.25 1.546.287.878.04 1.141.048 3.365.048 2.223 0 2.487-.008 3.364-.048.812-.037 1.253-.173 1.546-.287.727-.28 1.3-.854 1.58-1.58.115-.294.25-.734.287-1.546.04-.878.049-1.142.049-3.365 0-2.223-.009-2.486-.049-3.364-.037-.812-.172-1.253-.286-1.546zm-6.49 9.186a4.275 4.275 0 110-8.551 4.275 4.275 0 010 8.55zm4.444-7.721a1 1 0 110-1.999 1 1 0 010 1.999z"/><path d="M14.5 0C6.493 0 0 6.493 0 14.5S6.493 29 14.5 29 29 22.507 29 14.5 22.507 0 14.5 0zm8.276 17.933c-.04.886-.181 1.491-.387 2.02a4.258 4.258 0 01-2.435 2.436c-.53.206-1.135.346-2.021.387-.888.04-1.172.05-3.433.05s-2.545-.01-3.433-.05c-.886-.04-1.491-.181-2.02-.387a4.08 4.08 0 01-1.476-.96 4.08 4.08 0 01-.96-1.475c-.206-.53-.346-1.135-.387-2.021-.04-.888-.05-1.172-.05-3.433s.01-2.545.05-3.433c.04-.886.181-1.491.387-2.02.209-.556.537-1.06.96-1.476.416-.423.92-.75 1.475-.96.53-.206 1.135-.346 2.021-.387.888-.04 1.172-.05 3.433-.05s2.545.01 3.433.05c.886.04 1.491.181 2.02.387.556.209 1.06.537 1.476.96.423.416.751.92.96 1.475.206.53.347 1.135.387 2.021.04.888.05 1.172.05 3.433s-.01 2.545-.05 3.433z"/></svg>