<?xml version="1.0" encoding="utf-8"?><svg width="29" height="29" xmlns="http://www.w3.org/2000/svg" viewBox="0 0 29 29"><g clip-path="url(#hclip0)"><path d="M28.984 6.919a.447.447 0 00-.014-.073c-.145-.688-1.23-1.09-3.201-1.746a10.907 10.907 0 00-3.18-.484c-.244-.94-.887-1.958-2.289-1.958a1.54 1.54 0 00-1.345.765 2.849 2.849 0 00-.366 1.58c-.242.086-.486.177-.738.275a13.8 13.8 0 01-2.48.773 5.795 5.795 0 01-2.783-.103 14.403 14.403 0 00-3.405-.39C5.44 5.558 0 8.76 0 13.775c0 3.958.618 5.906 2.18 6.806.351 1.715 1.114 3.48 2.74 4.166 2.039.901 5.265.803 9.35.681 1.66-.048 3.378-.097 5.222-.097 1.257.006 4.205.02 5.677.64a1.17 1.17 0 00.966-2.13c-2.362-1.153-6.96-1.284-11.401-1.411-2.864-.082-5.57-.159-7.26-.517a3.925 3.925 0 01-1.106-.38 2.556 2.556 0 01-.323-.727 18.915 18.915 0 002.627-.902c.151.306.3.636.428.972.14.38.5.631.905.632h4.273a.967.967 0 00.86-1.408c-.49-.96-1.231-1.492-2.088-1.492-.73 0-1.13-.028-1.317-.327.169-.121.325-.237.465-.343.774-.588 1.203-.912 3.348-1.27.016 0 .031-.006.049-.008a10.161 10.161 0 012.915 1.807 4.36 4.36 0 011.024 1.551c.2.472.428 1.007 1.25 1.007h2.32c.314 0 .608-.152.791-.408a.935.935 0 00.128-.857 2.5 2.5 0 00-1.635-1.61c-.84-.28-1.815-1.982-2.479-3.664a5.317 5.317 0 001.335-2.008c.395-1.191.648-1.603 2.923-1.603 2.617 0 4.785-2.505 4.829-3.823 0-.007 0-.015.002-.022.002-.008 0-.015 0-.022a.795.795 0 00-.014-.09zM7.274 22.862c1.776.376 4.524.454 7.433.538 4.14.117 8.83.25 11.005 1.312a.204.204 0 01-.167.372c-1.454-.613-3.873-.706-6.049-.716h-.3c-1.749 0-3.378.048-4.956.096-3.96.12-7.09.215-8.936-.602-1.37-.58-1.966-2.31-2.223-3.727-.003-.007 0-.015-.005-.023a12.576 12.576 0 01-.137-.982.93.93 0 111.857-.098c.021.49.145 2.164.778 3.052.288.44 1.285.688 1.7.778zM24.167 9.908c-2.621 0-3.287.593-3.842 2.264a4.03 4.03 0 01-.786 1.286c-.085-.266-.16-.524-.22-.767a.483.483 0 10-.938.235 15.673 15.673 0 00.51 1.61c.684 1.836 1.85 4.085 3.19 4.531.483.143.864.514 1.022.991h-2.32c-.182 0-.182 0-.362-.42a5.344 5.344 0 00-1.23-1.855c-1.513-1.513-4.415-2.492-4.538-2.533a.483.483 0 00-.612.306.476.476 0 00.063.416 5.555 5.555 0 00-2.44 1.16c.076-.345.17-.686.28-1.021.359-1.144.804-2.568.089-4-1.12-2.24-4.297-3.17-5.75-3.17a.483.483 0 000 .967c1.28 0 4.008.88 4.884 2.633.542 1.083.194 2.2-.145 3.279a6.322 6.322 0 00-.389 1.822c0 .175.017.35.049.522 0 .014.003.027.006.04.271 1.367 1.557 1.37 2.362 1.37.489 0 .901.325 1.228.968l-4.273-.009c-.19-.491-.41-.97-.658-1.435v-.01c-.003-.006-.009-.01-.011-.016-.368-.692-.693-1.182-.715-1.215a.483.483 0 10-.804.536c.004.005.172.26.4.656-.77.326-1.56.597-2.368.813a9.285 9.285 0 01-.084-.875A1.897 1.897 0 003.68 17.15a1.885 1.885 0 00-1.705 1.99c-.582-.765-1.008-2.238-1.008-5.365 0-4.426 4.866-7.25 8.216-7.25a13.36 13.36 0 013.2.368A6.741 6.741 0 0015.562 7a14.79 14.79 0 002.64-.822c.179-.07.351-.137.522-.2.287 1.096 1.012 1.998 2.06 1.998a.483.483 0 100-.967c-.726 0-1.231-1.102-1.231-2.091a1.923 1.923 0 01.225-.986.574.574 0 01.522-.306c1.42 0 1.45 1.845 1.45 1.933a.48.48 0 00.96.029c.935.01 1.863.155 2.756.43.415.138.958.32 1.443.503-.066.042-.127.09-.182.145a.483.483 0 00.683.684c.1-.101.334-.084.55-.03-.349.89-1.918 2.59-3.793 2.59z"/><path d="M23.683 6.525H23.2a.483.483 0 000 .967h.483a.483.483 0 000-.967z"/></g><defs><clipPath id="hclip0"><path d="M0 0h29v29H0z"/></clipPath></defs></svg>