<?xml version="1.0" encoding="utf-8"?><svg width="36" height="22" xmlns="http://www.w3.org/2000/svg" viewBox="0 0 36 22"><path d="M.021 17.95c.1-.76.502-1.039.89-1.309.49-.34 1.23-.856 2.17-3.025 1.443-3.32 3.243-3.834 4.557-4.208.293-.084.546-.156.755-.25.157-.141.385-.873.551-1.409.362-1.16.856-2.75 1.922-4.121 1.273-1.638 3.096-2.6 5.419-2.862 2.958-.333 5.666.23 8.046 1.672.277.168.39.526.23.807a.585.585 0 01-.813.208c-2.16-1.315-4.627-1.828-7.332-1.524-4.596.517-5.654 3.918-6.354 6.168-.213.685-.389 1.248-.642 1.636l1.326 1.768c.275-.162.592-.227.92-.031.428.257.685.717.724 1.296.07 1.056-.574 2.442-1.467 3.156-.572.457-.958 1.387 1.052 4.523h1.914a1.149 1.149 0 00-.624-.591c-.714-.298-1.112-1.066-1.039-2.003.071-.914.633-2.017 1.7-2.28l.013-.002.005-.002c.236-.057.513-.108.806-.163 1.363-.253 3.229-.6 3.519-1.913.444-2.547-.6-3.756-.653-3.814a.585.585 0 01.858-.797c.057.061 1.31 1.438 1.033 4.19l2.56.196a.586.586 0 01.531.693c-.313 1.93-.473 5.26.34 6.486h1.28a3.24 3.24 0 00-.494-.4.585.585 0 01-.224-.687l.59-1.615v-.001l1.17-3.192a.588.588 0 01.03-.07l.013-.022a.576.576 0 01.027-.042l.017-.023a.533.533 0 01.085-.088l.022-.019a.609.609 0 01.04-.028c.008-.004.014-.01.021-.013a.551.551 0 01.06-.03l.008-.004a.594.594 0 01.066-.023l.005-.001.023-.005a.563.563 0 01.052-.01l.01-.002.018-.001a.565.565 0 01.125.002l.028.004a.6.6 0 01.05.011l.022.006a.585.585 0 01.136.062l.019.013.034.023.425.332c2.098-3.066 3.936-4.486 4.923-5.09a.585.585 0 01-.336-.386 10.053 10.053 0 00-.658-1.688c-.366-.723-.764-1.234-1.156-1.492a8.555 8.555 0 00-.301 1.676c-.037.56.002 1.14.202 1.624.121.293.014.642-.272.78a.585.585 0 01-.794-.296c-.272-.635-.34-1.361-.308-2.051-.251-.447-1.196-2-2.92-3.382a.586.586 0 01-.04-.878.6.6 0 01.79-.021A13.76 13.76 0 0128.16 5.96c.137-.551.277-.926.292-.968a.585.585 0 01.63-.37c1.863.266 2.867 3.021 3.155 3.95 2.044 1.059 2.029 3.996 1.958 5.01 1.003.888 1.69 2.764 1.772 2.994a.585.585 0 01-.024.45c-.529 1.096-2.04 1.427-2.895 1.527-1.236.144-2.544-.005-3.413-.39-.282-.124-.737-.412-1.244-.762.509.688.908 1.187 1.062 1.304.663.502 1.717 1.811 1.836 1.959a.586.586 0 01-.002.733.603.603 0 01-.473.218h-2.857a.585.585 0 01-.399-.157l-2.67-2.486-.137.377c.943.776 1.046 1.53 1.055 1.622a.587.587 0 01-.598.644h-2.55a.58.58 0 01-.422-.18c-1.42-1.496-1.084-5.451-.88-7.05l-2.094-.16a2.651 2.651 0 01-.463.734.585.585 0 01-.084.213c-.004.006-.346.54-.64 1.206-.341.777-.478 1.43-.374 1.79.122.425.46.73.817 1.054.473.427 1.062.96 1.031 1.829a.593.593 0 01-.597.564h-2.72a.585.585 0 01-.536-.349l-1.902-4.299c-.231.252-.373.634-.4.974-.025.326.047.716.324.832 1.538.643 1.462 2.224 1.458 2.291a.585.585 0 01-.584.55h-2.933c-.197 0-.381-.099-.49-.263-.951-1.447-1.504-2.55-1.74-3.473-.318-1.245-.06-2.211.764-2.87.584-.467 1.075-1.498 1.03-2.164a.779.779 0 00-.04-.21c-.384.39-1.075 1.497-1.599 2.336-1.29 2.067-2.752 4.409-4.279 5.053-1.699.718-3.456.68-4.475-.098-.626-.477-.913-1.18-.808-1.976zm30.086-.857c.874.387 2.38.436 3.48.175-.203-.61-.196-1.134.025-1.566.11-.214.255-.373.406-.491-.196-.314-.406-.588-.612-.764-.342.028-1.089.11-1.934.337-.87.233-1.99.663-2.745 1.426.604.428 1.12.769 1.38.883zm2.929-3.787c.03-.704-.002-2.05-.578-2.966-.644.334-2.585 1.548-4.93 4.992l.244.182c1.5-1.64 4.141-2.089 5.264-2.208zm-4.85 7.139h1.377c-.295-.327-.6-.642-.818-.806-.5-.38-1.878-2.315-2.778-3.618l-.643 1.758 2.862 2.666zm-11.575 0h1.492a6.396 6.396 0 00-.371-.355c-.42-.38-.943-.852-1.157-1.596-.208-.72.033-1.634.349-2.404-.672.225-1.372.356-1.96.465l-.04.076 1.687 3.814zm-6.7-8.106l-1.464-1.952c-.157.052-.32.098-.488.146-.378.108-.771.22-1.171.41l2.225 2.733c.32-.508.625-.972.898-1.337zM5.61 18.422c.371-.337.754-.788 1.133-1.292l-.51-.645c-.199-.252-.178-.624.067-.83a.585.585 0 01.836.085l.312.394c.318-.473.625-.956.91-1.41l-2.55-3.131c-.333.298-.665.69-.991 1.213l1.238 1.565a.599.599 0 01-.063.821.584.584 0 01-.843-.079L4.22 13.94l-.064.143a13.341 13.341 0 01-.795 1.568l2.248 2.772zm-4.07.572c.722.552 2.043.42 3.065.047l-1.946-2.398a5.119 5.119 0 01-1.078.959c-.33.229-.366.262-.398.5-.05.38.066.672.356.892z"/></svg>