<?xml version="1.0" encoding="utf-8"?><svg width="32" height="31" xmlns="http://www.w3.org/2000/svg" viewBox="0 0 32 31"><path d="M16 0C7.178 0 0 6.84 0 15.248s7.178 15.249 16 15.249c4.155 0 8.093-1.512 11.087-4.255a.6.6 0 00.019-.878.674.674 0 00-.921-.017c-2.75 2.52-6.368 3.908-10.185 3.908-8.104 0-14.698-6.283-14.698-14.007C1.302 7.525 7.896 1.241 16 1.241s14.698 6.284 14.698 14.007c0 1.742-.332 3.442-.985 5.051-.13.32.037.68.372.803a.662.662 0 00.843-.355A14.556 14.556 0 0032 15.248C32 6.84 24.822 0 16 0z"/><path d="M18.192 16.563a.674.674 0 00-.92.01.6.6 0 00.009.877l5.127 4.783a.666.666 0 00.455.177.666.666 0 00.465-.187.6.6 0 00-.01-.877l-5.126-4.783zM13.586 13.825a.666.666 0 00.46.182c.167 0 .334-.06.46-.182a.6.6 0 000-.877l-4.909-4.68a.674.674 0 00-.92 0 .6.6 0 000 .878l4.909 4.68zM23.324 8.269a.674.674 0 00-.921 0L8.676 21.35a.6.6 0 000 .878.666.666 0 00.46.182c.168 0 .334-.061.461-.182L23.324 9.146a.6.6 0 000-.877z"/></svg>