<?xml version="1.0" encoding="utf-8"?><svg width="27" height="27" xmlns="http://www.w3.org/2000/svg" viewBox="0 0 27 27"><path d="M26.654 26.55l-.956-6.964a.394.394 0 00-.057-.157l-1.538-2.44v-9.31a.396.396 0 00-.791 0v9.424c0 .074.021.147.06.21l1.554 2.466.883 6.43h-1.164l-2.462-9.993a.396.396 0 00-.22-.266l-6.768-3.087a.395.395 0 00-.277-.02l-.98.292V4.368c.095-.206.443-.884 1.173-1.59.32-.31.669-.582 1.044-.82v6.291a.395.395 0 10.79 0V1.524c.81-.376 1.72-.614 2.729-.71 1-.097 1.816.124 2.422.654 1.107.97 1.21 2.686 1.216 2.79v1.774a.395.395 0 10.79 0V4.25v-.014c-.002-.086-.087-2.134-1.48-3.359-.778-.682-1.794-.969-3.023-.851-2.572.246-4.176 1.34-5.07 2.214-.978.958-1.34 1.862-1.355 1.9a.397.397 0 00-.027.145v1.72h-.773a.396.396 0 00-.28.116l-2.23 2.231c-.085-.239-.167-.459-.244-.658a.728.728 0 00-.8-.46.73.73 0 00-.618.689 23.428 23.428 0 00.25 4.78c.11.676.232 1.332.364 1.957l-.391.116a43.12 43.12 0 00-.18-1.234A23.453 23.453 0 006.98 8.925a.729.729 0 00-.802-.46.728.728 0 00-.615.69c-.036.718-.05 1.689.026 2.793a24.231 24.231 0 00-1.405-2.087.729.729 0 00-.898-.223.728.728 0 00-.404.83c.255 1.1.73 2.78 1.546 4.53.177.38.361.759.549 1.132L3.623 17.62a.396.396 0 00.585.532l1.614-1.775 9.18-2.732 6.459 2.947 2.37 9.618H20.81a.394.394 0 00-.396.396c0 .218.177.395.396.395h5.452a.396.396 0 00.392-.45zM5.604 15.617c-.156-.315-.31-.634-.458-.952a22.5 22.5 0 01-1.429-4.104 22.714 22.714 0 012.118 3.503c.078.478.164.95.255 1.408l-.486.145zm1.247-.371c-.092-.468-.178-.95-.257-1.437a22.528 22.528 0 01-.253-4.338c.38 1.02.85 2.509 1.123 4.198.073.452.137.9.193 1.337l-.806.24zm2.726-.811a40.505 40.505 0 01-.343-1.857 22.53 22.53 0 01-.253-4.339c.38 1.02.85 2.508 1.123 4.198.097.601.18 1.194.246 1.767l-.773.23zm3.57-1.063l-2.027.603c-.066-.541-.144-1.099-.236-1.664a22.598 22.598 0 00-.742-3.118l2.396-2.396h.609v6.575z"/><path d="M19.163 26.209H1.133v-4.677l1.965-2.16a.395.395 0 10-.585-.533L.445 21.113a.396.396 0 00-.103.266v5.225c0 .219.177.396.396.396h18.424a.395.395 0 100-.791zM19.411 17.725a.395.395 0 00-.395.395v.052a.395.395 0 10.79 0v-.052a.395.395 0 00-.395-.395zM18.132 18.931a.395.395 0 00-.396.396v.05a.395.395 0 10.791 0v-.05a.395.395 0 00-.395-.396zM19.902 20.601a.395.395 0 00-.395.396v.051a.395.395 0 10.79 0v-.051a.395.395 0 00-.395-.396zM21.046 4.69a.395.395 0 00-.396.395v.051a.395.395 0 10.791 0v-.051a.395.395 0 00-.395-.396zM19.902 6.157a.396.396 0 00-.395.395v.051a.395.395 0 10.79 0v-.05a.395.395 0 00-.395-.396zM21.427 9.033a.395.395 0 00-.395.395v2.854a.396.396 0 10.79 0V9.428a.396.396 0 00-.395-.395z"/><path d="M12.99 22.481l-.12-1.706a.395.395 0 00-.327-.362l-4.206-.721a.396.396 0 00-.361.125l-2.187 2.427a.396.396 0 00.587.53l2.042-2.266 3.685.632.097 1.396a.395.395 0 10.79-.055z"/></svg>