<?xml version="1.0" encoding="utf-8"?><svg width="24" height="22" xmlns="http://www.w3.org/2000/svg" viewBox="0 0 24 22"><path fill-rule="evenodd" clip-rule="evenodd" d="M2.269 10.865a.468.468 0 01-.7-.062L.11 9.063a.469.469 0 11.72-.602l.717.854a10.491 10.491 0 013.013-6.233A10.49 10.49 0 0112 0c2.491 0 4.781.867 6.585 2.316a10.525 10.525 0 013.693 5.944.47.47 0 01-.918.198 9.584 9.584 0 00-18.886 1.01l.933-.782a.469.469 0 11.602.719l-1.74 1.46zm6.393-1.307l-.51-1.563h2.442a.47.47 0 000-.94h-2.75l-.47-1.443a.469.469 0 00-.447-.324l-1.76-.001a.47.47 0 100 .94h1.42l2.525 7.73a1.707 1.707 0 00-1.366 1.677c0 .473.192.9.502 1.21a1.707 1.707 0 002.421 0 1.706 1.706 0 00.317-1.983h3.262a1.706 1.706 0 00.317 1.983c.31.31.738.502 1.21.502.473 0 .901-.192 1.211-.502a1.706 1.706 0 000-2.419 1.729 1.729 0 00-1.212-.503h-5.687l-.27-.83h5.959a.47.47 0 00.446-.324L17.876 7.7a.47.47 0 00-.436-.644h-3.088a.47.47 0 000 .94h2.442l-.51 1.562H8.661zm7.315.939H8.968l.542 1.656h5.926l.54-1.656zm-3.504-3.442a.47.47 0 100 .94.47.47 0 000-.94zm3.335 7.805a.771.771 0 01.514 1.32.77.77 0 01-1.093 0 .772.772 0 01.578-1.32zm-5.803.228a.77.77 0 010 1.092.77.77 0 01-1.093 0 .77.77 0 010-1.092.77.77 0 011.092 0zm10.588-2.727l.933-.783a9.554 9.554 0 01-2.75 5.722A9.553 9.553 0 0112 20.106 9.542 9.542 0 016.002 18a9.583 9.583 0 01-3.362-5.411.47.47 0 10-.918.198 10.524 10.524 0 003.693 5.944A10.477 10.477 0 0012 21.046a10.49 10.49 0 007.44-3.082 10.49 10.49 0 003.014-6.233l.717.854a.469.469 0 00.72-.602l-1.46-1.74a.469.469 0 00-.7-.062l-1.74 1.46a.47.47 0 00.602.72z"/></svg>