<?xml version="1.0" encoding="utf-8"?><svg width="29" height="29" xmlns="http://www.w3.org/2000/svg" viewBox="0 0 29 29"><path d="M14.5 0C6.492 0 0 6.492 0 14.5S6.492 29 14.5 29 29 22.508 29 14.5 22.508 0 14.5 0zm7.355 16.068c.676.66 1.391 1.282 1.998 2.01.268.322.522.655.715 1.03.275.534.026 1.12-.452 1.152h-2.97c-.768.063-1.378-.247-1.893-.771-.41-.418-.792-.865-1.188-1.297a2.772 2.772 0 00-.535-.476c-.405-.263-.757-.183-.989.24-.236.431-.29.908-.313 1.387-.032.7-.243.884-.946.917-1.502.07-2.927-.158-4.251-.915-1.168-.668-2.073-1.61-2.86-2.677-1.535-2.08-2.71-4.364-3.766-6.713-.238-.529-.064-.812.52-.823.97-.018 1.939-.016 2.908 0 .395.006.656.231.808.604a18.051 18.051 0 001.97 3.653c.215.303.434.605.746.819.344.236.606.158.769-.227.104-.244.148-.505.17-.767.078-.896.087-1.792-.046-2.684-.083-.559-.398-.92-.954-1.025-.284-.054-.242-.16-.104-.321.239-.28.463-.453.912-.453l3.356-.001c.529.104.647.341.72.874l.002 3.73c-.006.206.104.817.474.952.297.098.492-.14.67-.328.805-.854 1.378-1.862 1.892-2.905.226-.46.422-.937.612-1.414.141-.352.36-.526.759-.52l3.232.004c.095 0 .192 0 .286.017.545.093.694.327.525.859-.265.835-.78 1.53-1.284 2.227-.54.747-1.116 1.467-1.65 2.217-.492.685-.453 1.03.157 1.625z"/></svg>