<?xml version="1.0" encoding="utf-8"?><svg width="32" height="32" xmlns="http://www.w3.org/2000/svg" viewBox="0 0 32 32"><path d="M26.422 14.695l2.309-2.035 1.534.327c.375.08.759.01 1.08-.2.322-.208.543-.53.623-.904.08-.375.01-.758-.2-1.08a1.426 1.426 0 00-.904-.623l-2.24-.477a1.44 1.44 0 00-1.249.327l-2.574 2.268-3.168.707 3.158-2.854c.165-.15.296-.34.376-.548l1.82-4.713 2.546-2.414a1.437 1.437 0 00.054-2.03 1.437 1.437 0 00-2.029-.053l-2.78 2.638a1.444 1.444 0 00-.352.524L22.612 8.25l-2.48 2.242.722-1.7c.127-.298.201-.614.22-.938a4.51 4.51 0 00-1.882-3.954l-.698-.502a.61.61 0 00-.707-.007.61.61 0 00-.248.662l.837 3.211a.57.57 0 01-.043.401l-.34.673a3.18 3.18 0 00-.02-.105l-.252-1.191a.612.612 0 00-1.11-.215l-.611.91-.612-.91a.612.612 0 00-1.11.215l-.252 1.19-.02.106-.34-.673a.57.57 0 01-.042-.4l.836-3.212a.61.61 0 00-.247-.662.61.61 0 00-.707.007l-.699.501a4.51 4.51 0 00-1.882 3.955c.02.324.093.64.22.939l.723 1.7-2.48-2.243-1.814-4.696a1.444 1.444 0 00-.352-.525L4.442.393a1.437 1.437 0 00-2.029.054 1.437 1.437 0 00.054 2.029L5.013 4.89l.534 1.383a.467.467 0 00.87-.336l-.436-1.13.857-.565 1.57 4.062-.893.473-.38-.985a.467.467 0 00-.871.337l.57 1.474c.08.209.21.398.376.548l3.157 2.854-3.168-.707-2.574-2.268a1.44 1.44 0 00-1.248-.327l-2.24.477c-.376.08-.697.301-.905.623-.209.322-.28.705-.2 1.08.08.375.301.696.623.905.321.208.705.28 1.08.2l1.534-.328 2.31 2.035c.18.16.4.271.635.324l3.009.671-4.385 1.857a1.44 1.44 0 00-.7.635l-1.902 3.49-1.281.909c-.313.222-.52.552-.585.93a1.438 1.438 0 001.415 1.676c.299 0 .586-.092.83-.265l1.552-1.1c.178-.127.326-.294.43-.485l1.821-3.343 4.314-1.826-4.786 4.543a1.44 1.44 0 00-.447 1.04v3.967l-.838 2.036c-.146.354-.145.744.002 1.098a1.426 1.426 0 001.324.883 1.43 1.43 0 001.328-.889l.946-2.298c.072-.174.108-.358.108-.546v-3.634l4.932-4.681c.032.032.065.062.098.093-1.068 1.028-1.716 2.658-1.716 4.383a6.8 6.8 0 00.317 2.07.467.467 0 10.89-.283 5.87 5.87 0 01-.273-1.787c0-1.546.59-2.988 1.556-3.827a3.717 3.717 0 001.771.447h.112c.64 0 1.244-.162 1.771-.447.965.84 1.556 2.28 1.556 3.827 0 2.512-1.518 4.556-3.383 4.556-.808 0-1.592-.395-2.208-1.112a.467.467 0 00-.708.608c.796.927 1.832 1.438 2.916 1.438 2.38 0 4.317-2.463 4.317-5.49 0-1.725-.648-3.355-1.716-4.383a3.77 3.77 0 00.098-.093l4.932 4.681v3.634c0 .188.036.372.108.546l.946 2.298a1.43 1.43 0 001.873.78c.355-.145.631-.42.779-.774.147-.354.148-.744.002-1.098l-.838-2.036v-3.966a1.44 1.44 0 00-.448-1.041l-4.785-4.543 4.313 1.827 1.821 3.342c.104.191.253.358.43.484l1.553 1.101a1.439 1.439 0 002.245-1.411 1.425 1.425 0 00-.585-.93l-1.281-.909-1.902-3.49a1.44 1.44 0 00-.7-.635l-1.17-.495a.467.467 0 00-.364.86l.658.278-.552.855-2.839-1.202.427-.908.466.197a.466.466 0 10.364-.86l-1.375-.582 3.008-.671c.236-.053.456-.165.637-.324zM3.09 1.09c.19-.2.509-.209.71-.019l2.523 2.394-.86.566-2.354-2.232a.502.502 0 01-.019-.709zm27.895 10.222a.5.5 0 01-.148.694.498.498 0 01-.377.07l-1.536-.328-.258-1.08 2.003.426a.5.5 0 01.316.218zm-3.216-.384l.264 1.105-2.1 1.85-.366-1.014 2.202-1.94zm-3.049 2.346l.345.95-5.269 1.176v-.733l.432-.391 4.492-1.002zm-5.446 5.672c.182-.306.321-.64.41-.994l2.461 2.337-.68.736-2.19-2.079zm-.681-9.72l.86.479-.581 1.369a3.77 3.77 0 00-.849-.721l.57-1.128zM28.2 1.07a.502.502 0 01.69.727L26.537 4.03l-.86-.566 2.524-2.393zm-3.04 3.171l.857.565-1.533 3.97-.892-.473 1.569-4.062zm-2.083 4.846l.944.5-4.229 3.822a3.723 3.723 0 00-.22-1.153l3.505-3.169zM20.143 7.8a1.895 1.895 0 01-.148.628l-.175.412-.806-.45.153-.303c.165-.327.205-.703.113-1.057l-.615-2.359A3.582 3.582 0 0120.143 7.8zm-5.204.628l.096-.452.389.577a.694.694 0 001.153 0l.388-.577.096.452c.104.492.029 1.006-.212 1.448a3.74 3.74 0 00-.793-.086h-.112c-.272 0-.537.03-.792.086a2.108 2.108 0 01-.212-1.448zm-4.403 12.596l-.681-.736 2.461-2.337c.089.354.228.688.41.994l-2.19 2.08zm2.593-9.951l-.582-1.37.86-.479.57 1.128c-.318.197-.604.44-.848.72zm.206-6.402L12.72 7.03c-.092.354-.052.73.113 1.057l.153.303-.806.45-.175-.412a1.893 1.893 0 01-.148-.628 3.582 3.582 0 011.478-3.129zm-.908 7.586c-.131.362-.207.75-.22 1.153L7.978 9.588l.944-.5 3.505 3.17zm-.223 2.409v.733l-5.268-1.175.344-.951 4.492 1.002.432.39zM1.54 12.074a.498.498 0 01-.595-.386.498.498 0 01.386-.595l2.003-.427-.258 1.081-1.536.327zm2.428-.042l.263-1.105 2.202 1.94-.366 1.014-2.1-1.85zm8.236 4.323v.176l-2.24.948-.426-.908 1.253-.53 1.413.314zm-5.938 2.69l-.552-.855 2.963-1.255.428.908-2.84 1.203zm-4.191 5.116a.503.503 0 01-.784-.493.498.498 0 01.204-.325l1.1-.78.87.613-1.39.985zm1.953-1.73l-.825-.582 1.722-3.16.619.96-1.516 2.782zm3.408 5.055l-1.003-.099v-3.28l1.003.453v2.927zm-.984 3.005a.499.499 0 01-.927.002.499.499 0 010-.384l.74-1.8 1.043.103-.856 2.08zm1.291-6.816l-.986-.446 2.42-2.298.682.736-2.116 2.008zm8.201-3.825a2.81 2.81 0 01-2.807-2.807V13.53a2.81 2.81 0 012.807-2.807h.112a2.81 2.81 0 012.807 2.807v3.512a2.81 2.81 0 01-2.807 2.807h-.112zm6.197 1.817l.681-.736 2.421 2.298-.986.446-2.116-2.008zm3.426 5.72l-1.003.1V24.56l1.003-.454v3.28zm.908 3.106a.498.498 0 01-.463.309.5.5 0 01-.464-.311l-.856-2.08 1.042-.102.742 1.8c.05.124.05.26-.001.384zm4.03-7.15a.498.498 0 01.12.699.503.503 0 01-.7.119l-1.39-.986.87-.612 1.1.78zm-1.708-1.494l-.825.582-1.516-2.782.62-.96 1.721 3.16zm-6.335-5.278l-.427.908-2.239-.948v-.175l1.413-.316 1.253.53z"/></svg>