<?xml version="1.0" encoding="utf-8"?><svg width="20" height="20" xmlns="http://www.w3.org/2000/svg" viewBox="0 0 20 20"><path d="M10 .201c-5.514 0-10 4.276-10 9.53 0 5.255 4.486 9.53 10 9.53 2.597 0 5.058-.944 6.93-2.659a.375.375 0 00.011-.548.421.421 0 00-.575-.01c-1.72 1.575-3.98 2.442-6.366 2.442-5.065 0-9.186-3.927-9.186-8.754C.814 4.904 4.934.977 10 .977c5.065 0 9.186 3.927 9.186 8.755a8.356 8.356 0 01-.615 3.157c-.081.2.023.424.232.501a.414.414 0 00.527-.222A9.098 9.098 0 0020 9.731c0-5.254-4.486-9.53-10-9.53z"/><path d="M11.37 10.553a.421.421 0 00-.575.006.375.375 0 00.006.549l3.204 2.989c.079.074.182.11.284.11a.416.416 0 00.291-.116.375.375 0 00-.006-.549l-3.204-2.989zM8.491 8.842c.08.076.184.114.288.114a.416.416 0 00.288-.114.375.375 0 000-.548L5.998 5.369a.421.421 0 00-.575 0 .375.375 0 000 .549L8.49 8.842zM14.577 5.37a.421.421 0 00-.575 0l-8.58 8.175a.375.375 0 000 .549c.08.075.184.113.288.113a.416.416 0 00.288-.113l8.58-8.176a.375.375 0 000-.549z"/></svg>