<?xml version="1.0" encoding="utf-8"?><svg width="32" height="32" xmlns="http://www.w3.org/2000/svg" viewBox="0 0 32 32"><path d="M23.975 17.793a.437.437 0 01.581.21c.398.85.52 1.619.361 2.286a.437.437 0 01-.851-.202c.11-.47.01-1.046-.302-1.713a.437.437 0 01.21-.581z"/><path d="M1.188 17.025a.436.436 0 01.118-.318c.494-.528.988-1.034 1.467-1.502 4.708-4.642 9.02-7.032 12.816-7.105 3.735-.074 6.321.075 8.169 2.696l.003.004.001.002c.065.093.127.19.189.287.122-1.76.618-3.634 1.542-4.65a2.296 2.296 0 011.737-.825c.105 0 .21 0 .317-.002.872-.008 1.86-.02 2.532.645.494.487.733 1.258.733 2.355 0 2.01-1.085 2.344-1.803 2.565-.487.15-.57.204-.596.392l-.008.065a12.61 12.61 0 01-2.377 5.993c.439.939.561 1.994.35 3.009-.332 1.4-2.34 4.783-6.144 5.722a1.21 1.21 0 01-1.36-1.698 1.19 1.19 0 01.335-.417c1.68-1.34 2.446-2.306 2.407-3.057-2.125 1.006-4.694 1.532-7.659 1.552-.44 0-.862-.013-1.271-.033A7.14 7.14 0 018.15 26.36a1.03 1.03 0 01-.85-.17 1.04 1.04 0 01-.036-1.654c.829-.662 1.877-1.593 1.85-2.311-3.039-.736-4.457-2.125-5.115-3.23a11.837 11.837 0 01-2.667-1.664.435.435 0 01-.144-.306zm7.46-5.535l1.706 1.801 3.47.188 1.261-1.547-2.006-2.555a16.54 16.54 0 00-4.43 2.112zm5.908 2.476l1.99 3.325c2.229-.62 3.794-1.616 4.82-2.706L18.6 12.08l-2.73.275-1.314 1.611zm-.789.386l-3.337-.18-1.585 3.446c1.554.306 3.146.378 4.723.214.702-.068 1.399-.177 2.088-.325l-1.889-3.155zm-5.792 3.063l1.66-3.61-1.72-1.818a35.335 35.335 0 00-4.16 3.486c1.28.893 2.71 1.55 4.22 1.942zm7.63-8.44a9.363 9.363 0 00-1.59.177l1.826 2.325 1.418-.142 1.208-.122 1.038-2.07c-1.098-.191-2.38-.198-3.9-.168zm4.774.377l-1.089 2.173 2.635 2.386a5.014 5.014 0 001.033-2.72 4.848 4.848 0 00-2.578-1.839zm7.167 2.1c.102-.773.74-.97 1.206-1.113.458-.139.848-.26 1.048-.772-.405.045-.812.068-1.219.068-.578 0-.995-.04-1.027-.043a.438.438 0 01-.395-.477.443.443 0 01.477-.393c.766.062 1.537.044 2.3-.053l.002-.057c0-.84-.16-1.425-.476-1.735-.411-.408-1.138-.4-1.907-.392l-.325.002a1.44 1.44 0 00-1.09.54c-1.056 1.161-1.492 3.878-1.305 5.834v.017l.002.018a4.78 4.78 0 01-.494 2.079c.465.553.882 1.144 1.248 1.768a11.87 11.87 0 001.947-5.225l.008-.066zm-7.792 13.475a.321.321 0 00-.122.252.33.33 0 00.393.328c3.416-.843 5.209-3.837 5.502-5.075.194-.82.065-1.695-.396-2.678a10.26 10.26 0 00-1.252-1.962 8.813 8.813 0 01-2.733 2.563 29.41 29.41 0 011.14 2.016l.004.008.006.012c.792 1.581-.84 3.18-2.542 4.537v-.001zm1.544-4.559a33.628 33.628 0 00-.912-1.579c-1.669.872-3.864 1.537-6.68 1.79-.208.018-.41.028-.614.041.05.395.03.796-.059 1.185-.002.012-.008.027-.011.04.304.01.614.018.932.018 2.861-.02 5.325-.526 7.344-1.495zm-13.49 4.853a.165.165 0 00.133.29c2.275-.56 3.632-2.42 4.075-3.432.07-.153.126-.311.167-.474.072-.311.085-.633.038-.95-.15.003-.3.01-.447.01-.842 0-1.682-.052-2.517-.16.193.33.398.697.57 1.043.026.05.046.098.066.15l.004.009.002.005c.464 1.252-.795 2.475-2.091 3.51zm.832-4.03a28.67 28.67 0 00-.514-.864 17.672 17.672 0 01-2.39-.63 7.872 7.872 0 002.904 1.494zm4.989-1.484c2.879-.259 5.059-.954 6.657-1.845.01-.007.018-.015.028-.021a.45.45 0 01.065-.032c2.527-1.441 3.564-3.375 3.584-4.817-.1-.233-.203-.448-.308-.656-.715 2.577-3.619 5.739-10.002 6.367-.611.06-1.2.088-1.764.088-4.428 0-7.403-1.7-8.769-2.698-.28.279-.563.565-.848.864 1.16.849 5.117 3.313 11.357 2.75z"/></svg>